<svg width="187" height="144" viewBox="0 0 187 144" fill="none" xmlns="http://www.w3.org/2000/svg">
<path d="M156.9 63.79C156.813 62.2 156.353 60.6528 155.557 59.2735C154.762 57.8942 153.653 56.7214 152.32 55.85C151.901 55.5666 151.425 55.3793 150.925 55.3015C150.426 55.2237 149.915 55.2573 149.43 55.3999V55.3999L129.59 63.1199L139.3 79.79L155.86 66.51C156.223 66.1611 156.504 65.7364 156.684 65.2662C156.864 64.796 156.938 64.2919 156.9 63.79V63.79Z" fill="#F5F5F5"/>
<path d="M145.91 56.7C146.421 56.5836 146.951 56.5724 147.467 56.6669C147.982 56.7615 148.473 56.9598 148.91 57.2499C150.382 58.2123 151.608 59.5076 152.487 61.0311C153.366 62.5547 153.874 64.2637 153.97 66.02C153.997 66.5327 153.923 67.0457 153.751 67.5297C153.58 68.0136 153.314 68.4589 152.97 68.8399L154.58 67.54L155.87 66.4699C156.226 66.1246 156.502 65.706 156.68 65.2433C156.858 64.7805 156.933 64.2846 156.9 63.79C156.813 62.2 156.353 60.6528 155.557 59.2735C154.762 57.8942 153.653 56.7214 152.32 55.85C151.901 55.5666 151.425 55.3793 150.926 55.3015C150.426 55.2237 149.915 55.2573 149.43 55.3999L147.75 56.0299L145.91 56.7Z" fill="#BA68C8"/>
<path opacity="0.1" d="M156.49 61.34L135.59 73.4L139.3 79.79L155.86 66.51C156.223 66.1611 156.504 65.7364 156.684 65.2662C156.864 64.796 156.938 64.292 156.9 63.79C156.892 62.9569 156.753 62.1303 156.49 61.34V61.34Z" fill="#455A64"/>
<path d="M134 63.79C135.999 65.0947 137.663 66.8519 138.857 68.9194C140.05 70.9868 140.74 73.3063 140.87 75.69C140.87 80.07 137.79 81.84 134 79.69C132.001 78.3852 130.337 76.628 129.144 74.5606C127.95 72.4931 127.26 70.1736 127.13 67.79C127.13 63.33 130.21 61.56 134 63.79Z" fill="#E0E0E0"/>
<path d="M150.7 45.05C150.612 43.4616 150.152 41.9161 149.356 40.5385C148.561 39.1609 147.452 37.9898 146.12 37.12C145.702 36.8346 145.226 36.6462 144.726 36.5683C144.226 36.4905 143.715 36.5252 143.23 36.67L123.39 44.39L133.12 61.1199L149.66 47.79C150.025 47.438 150.307 47.0099 150.487 46.5363C150.666 46.0626 150.739 45.5551 150.7 45.05V45.05Z" fill="#F5F5F5"/>
<path d="M139.71 38.01C140.213 37.8966 140.734 37.8869 141.242 37.9814C141.749 38.076 142.231 38.2728 142.66 38.5599C144.134 39.5184 145.362 40.8112 146.243 42.3334C147.124 43.8555 147.633 45.5639 147.73 47.32C147.758 47.8328 147.684 48.3462 147.513 48.8302C147.341 49.3143 147.075 49.7595 146.73 50.14L148.34 48.85L149.63 47.78C149.986 47.4255 150.26 46.9974 150.433 46.5258C150.605 46.0542 150.673 45.5504 150.63 45.05C150.542 43.4616 150.082 41.9161 149.286 40.5385C148.491 39.1609 147.382 37.9898 146.05 37.12C145.632 36.8346 145.156 36.6462 144.656 36.5683C144.156 36.4905 143.645 36.5252 143.16 36.67L141.48 37.29L139.71 38.01Z" fill="#BA68C8"/>
<path opacity="0.1" d="M150.28 42.64L129.39 54.71L133.1 61.09L149.66 47.79C150.016 47.4356 150.29 47.0075 150.463 46.5359C150.635 46.0642 150.703 45.5605 150.66 45.06C150.657 44.2387 150.529 43.4228 150.28 42.64V42.64Z" fill="#455A64"/>
<path d="M132.652 61.3865C135.335 59.8373 135.337 54.8166 132.656 50.1724C129.974 45.5282 125.625 43.0191 122.942 44.5683C120.259 46.1174 120.257 51.1382 122.939 55.7824C125.62 60.4266 129.969 62.9356 132.652 61.3865Z" fill="#E0E0E0"/>
<path d="M29.3601 105.08L51.7601 79.21L57.3601 37.17L68.5601 30.7L113.37 56.58L29.3601 105.08Z" fill="#BA68C8"/>
<path opacity="0.6" d="M29.3601 105.08L51.7601 79.21L57.3601 37.17L68.5601 30.7L113.37 56.58L29.3601 105.08Z" fill="white"/>
<path d="M68.5601 30.7L57.3601 37.17L102.17 63.0399L113.37 56.58L68.5601 30.7Z" fill="#BA68C8"/>
<path opacity="0.3" d="M68.5601 30.7L57.3601 37.17L102.17 63.0399L113.37 56.58L68.5601 30.7Z" fill="#455A64"/>
<path d="M130.18 40.33C126.26 38.07 122.63 37.41 119.65 38.13C118.897 38.3014 118.173 38.581 117.5 38.96L117.06 39.2L49.7699 78.06C38.7217 84.4419 29.3182 93.3181 22.3099 103.98L0.669922 136.88L4.99992 142.96L38.2499 137.62C48.6054 135.965 58.5699 132.427 67.6499 127.18L143.3 83.51C145.95 81.87 147.73 78.78 148.24 74.51C148.337 73.64 148.387 72.7654 148.39 71.89C148.38 60.26 140.23 46.14 130.18 40.33Z" fill="#BA68C8"/>
<path opacity="0.9" d="M130.18 40.33C126.26 38.07 122.63 37.41 119.65 38.13C118.897 38.3014 118.173 38.581 117.5 38.96L117.06 39.2L49.7699 78.06C38.7217 84.4419 29.3182 93.3181 22.3099 103.98L0.669922 136.88L4.99992 142.96L38.2499 137.62C48.6054 135.965 58.5699 132.427 67.6499 127.18L143.3 83.51C145.95 81.87 147.73 78.78 148.24 74.51C148.337 73.64 148.387 72.7654 148.39 71.89C148.38 60.26 140.23 46.14 130.18 40.33Z" fill="white"/>
<path d="M134.64 88.48C137.29 86.84 139.07 83.75 139.58 79.48C139.678 78.61 139.728 77.7354 139.73 76.86C139.73 65.25 131.58 51.13 121.53 45.33C117.61 43.06 113.99 42.4 111.01 43.12C110.257 43.2897 109.532 43.5693 108.86 43.95L117.5 38.95C118.173 38.571 118.897 38.2914 119.65 38.12C122.65 37.4 126.26 38.06 130.18 40.32C140.18 46.13 148.38 60.25 148.38 71.86C148.378 72.7354 148.328 73.61 148.23 74.48C147.72 78.77 145.94 81.86 143.29 83.48L134.64 88.48Z" fill="#BA68C8"/>
<path d="M7.41014 131C6.6838 130.536 5.83117 130.309 4.97014 130.35L2.53013 134.06L0.670134 136.89C0.276139 137.492 0.0518898 138.19 0.0210174 138.908C-0.0098549 139.627 0.153794 140.341 0.494719 140.975C0.835643 141.609 1.34122 142.139 1.95815 142.509C2.57509 142.88 3.28053 143.077 4.00014 143.08C4.33797 143.075 4.67386 143.028 5.00014 142.94V142.94L7.84013 142.49L11.6701 141.87C12.0123 141.36 12.222 140.772 12.2801 140.16C12.2801 139.94 12.2801 139.7 12.2801 139.45C12.1889 137.758 11.7004 136.111 10.8543 134.643C10.0083 133.175 8.82835 131.927 7.41014 131V131Z" fill="#BA68C8"/>
<path opacity="0.6" d="M51.76 95.38C61.59 89.57 109.09 62.2 137.2 46.02C135.154 43.7945 132.797 41.8778 130.2 40.33C126.28 38.07 122.65 37.41 119.67 38.13C118.917 38.3014 118.193 38.581 117.52 38.96L117.08 39.2L49.79 78.06C38.7418 84.4419 29.3383 93.3181 22.33 103.98L1.43003 135.72L0.670026 136.89C0.234274 137.545 0.00122818 138.313 2.73307e-05 139.1C-0.0035937 140.07 0.352712 141.007 1.00003 141.73C-0.999973 137.42 16.77 125.84 26.61 116.55C36.45 107.26 46.23 98.65 51.76 95.38Z" fill="white"/>
<path d="M41.9301 117.66C39.1101 111.86 34.8501 107.01 30.2401 104.36C28.2012 103.109 25.8793 102.394 23.4901 102.28C23.1001 102.85 22.6901 103.4 22.3101 103.98L13.3101 117.66L14.4001 117.56C14.5365 117.55 14.6736 117.55 14.8101 117.56C16.1145 117.616 17.3822 118.009 18.4901 118.7C21.3264 120.502 23.6374 123.02 25.1901 126L25.8301 127.16L42.5301 118.91L41.9301 117.66Z" fill="#BA68C8"/>
<path d="M29.55 105.55C27.4651 104.22 25.0203 103.567 22.55 103.68L14.27 116.19C15.9988 116.103 17.7117 116.557 19.17 117.49C22.2328 119.411 24.7284 122.114 26.4 125.32L40.69 118.26C38.11 112.95 34.08 108.16 29.55 105.55Z" fill="#455A64"/>
<path opacity="0.1" d="M29.55 105.55C27.4651 104.22 25.0203 103.567 22.55 103.68L14.27 116.19C14.8656 116.144 15.4647 116.181 16.05 116.3C17.18 115.04 18.32 113.02 20.27 113.38C22.53 113.8 24.27 116.08 26.11 117.24C26.5881 117.568 27.1288 117.795 27.6983 117.905C28.2678 118.015 28.8539 118.006 29.42 117.88C30.3931 117.461 31.2708 116.849 32 116.08C32.3662 115.699 32.8169 115.411 33.3155 115.237C33.8141 115.063 34.3467 115.009 34.87 115.08C35.99 115.38 36.43 116.46 36.87 117.41C37.2606 118.144 37.5949 118.906 37.87 119.69L40.73 118.27C38.11 112.95 34.08 108.16 29.55 105.55Z" fill="white"/>
<path opacity="0.05" d="M22.4699 110.79L22.5399 110.84C23.4508 111.447 24.3957 112.001 25.3699 112.5C26.1799 112.92 27.2599 113.27 27.9399 112.66C28.6199 112.05 28.4699 110.87 29.1899 110.37C29.4929 110.194 29.8397 110.107 30.1899 110.12C31.8226 110.141 33.4277 110.544 34.8761 111.298C36.3246 112.052 37.576 113.135 38.5299 114.46C36.257 110.83 33.1771 107.775 29.5299 105.53C27.445 104.2 25.0002 103.547 22.5299 103.66L17.6899 111C19.4399 109.71 20.6799 109.65 22.4699 110.79Z" fill="white"/>
<path opacity="0.15" d="M148.23 74.4901C148.327 73.6201 148.377 72.7454 148.38 71.87C148.367 70.8439 148.301 69.8191 148.18 68.8C124.81 82.24 67.7899 115.05 57.3599 121.25C44.1699 129.09 11.7099 140.25 3.35993 140.65C1.35993 140.76 0.659925 139.23 0.709925 136.84V136.89C0.31769 137.489 0.0935886 138.183 0.0610221 138.899C0.0284555 139.614 0.18862 140.325 0.52479 140.958C0.86096 141.59 1.3608 142.121 1.97209 142.494C2.58339 142.868 3.28372 143.07 3.99993 143.08C4.33776 143.075 4.67366 143.028 4.99993 142.94V142.94L38.2499 137.6C48.6054 135.945 58.5699 132.407 67.6499 127.16L143.3 83.4901C145.94 81.8701 147.72 78.7901 148.23 74.4901Z" fill="#BA68C8"/>
<path opacity="0.6" d="M4.99994 142.94L7.83994 142.49L11.6699 141.87C12.0121 141.359 12.2218 140.772 12.2799 140.16C12.2799 139.94 12.2799 139.7 12.2799 139.45C12.2799 139.2 12.2799 139.05 12.2799 138.85C9.37027 139.715 6.38802 140.314 3.36995 140.64C1.36995 140.75 0.669945 139.22 0.719945 136.83V136.88C0.325509 137.479 0.0992675 138.172 0.0649009 138.889C0.0305343 139.605 0.189303 140.317 0.524595 140.951C0.859887 141.585 1.35938 142.117 1.97078 142.491C2.58218 142.866 3.28302 143.069 3.99994 143.08C4.30698 143.076 4.6125 143.036 4.90995 142.96L4.99994 142.94Z" fill="#455A64"/>
<path d="M186.19 98.62L141.38 72.74L57.3601 121.25L102.17 111.55L174.99 108.32L186.19 101.85V98.62Z" fill="#BA68C8"/>
<path opacity="0.6" d="M186.19 98.62L141.38 72.74L57.3601 121.25L102.17 111.55L174.99 108.32L186.19 101.85V98.62Z" fill="white"/>
<path d="M102.17 111.55V108.32L57.3601 121.25L102.17 111.55Z" fill="#BA68C8"/>
<path d="M102.17 108.32L174.99 105.08V108.32L102.17 111.55V108.32Z" fill="#BA68C8"/>
<path opacity="0.3" d="M102.17 108.32L174.99 105.08V108.32L102.17 111.55V108.32Z" fill="white"/>
<path d="M130.18 79.21L174.99 105.08L186.19 98.62L141.38 72.74L130.18 79.21Z" fill="#BA68C8"/>
<path opacity="0.3" d="M130.18 79.21L174.99 105.08L186.19 98.62L141.38 72.74L130.18 79.21Z" fill="#455A64"/>
<path d="M186.19 98.62L174.99 105.08V108.32L186.19 101.85V98.62Z" fill="#BA68C8"/>
<path opacity="0.5" d="M186.19 98.62L174.99 105.08V108.32L186.19 101.85V98.62Z" fill="#455A64"/>
<path d="M138.59 0L132.99 3.23999L104.98 51.74L107.77 53.34L130.24 40.37L141.38 1.59999L138.59 0Z" fill="#BA68C8"/>
<path d="M107.77 53.34L130.24 40.37L141.38 1.59998L135.78 4.82997L107.77 53.34Z" fill="#BA68C8"/>
<path opacity="0.5" d="M132.99 3.23999L135.78 4.82999L141.38 1.59999L138.59 0L132.99 3.23999Z" fill="white"/>
<path opacity="0.6" d="M135.78 4.82997L107.77 53.34L130.24 40.37L141.38 1.59998L135.78 4.82997Z" fill="#455A64"/>
<path opacity="0.8" d="M148 42.56C145.77 38.7 144.56 31.56 151.17 27.2C157.78 22.84 163.04 25.28 163.04 25.28C163.04 25.28 160.55 27.28 160.62 29.2C160.62 29.2 167.79 22.9 173.17 25.56C173.17 25.56 168.77 27.72 169.4 29.65C170.03 31.58 177.67 28.05 180.32 24.5C180.32 24.5 180.7 27.61 177.59 31.44C174.48 35.27 167.84 38.33 167.84 38.33C168.642 38.657 169.507 38.8016 170.372 38.7531C171.236 38.7047 172.08 38.4645 172.84 38.05C172.84 38.05 168.67 44.56 162.89 47.35C160.27 48.6312 157.256 48.848 154.48 47.955C151.704 47.0619 149.381 45.1283 148 42.56V42.56Z" fill="#BA68C8"/>
<path opacity="0.8" d="M151.28 40.63C149.23 37.08 152.7 31.77 159.58 32.39C159.58 32.39 156.41 34.5 157.38 36.31C158.35 38.12 164.8 34.65 166.1 33.61C166.1 33.61 163.93 39.16 159.67 41.61C156.62 43.38 153.2 43.97 151.28 40.63Z" fill="white"/>
<path opacity="0.8" d="M153.73 60.3699C155.96 64.2299 161.52 68.8499 168.62 65.2999C175.72 61.7499 176.21 55.9799 176.21 55.9799C176.21 55.9799 173.21 57.1199 171.61 56.1199C171.61 56.1199 180.61 53.0599 181.03 47.0699C181.03 47.0699 176.97 49.7999 175.6 48.2899C174.23 46.7799 181.13 41.9299 185.53 41.4099C185.53 41.4099 183.03 39.5299 178.15 40.2999C173.27 41.0699 167.05 46.3599 167.05 46.3599C166.973 45.4578 167.089 44.5496 167.39 43.6959C167.692 42.8423 168.173 42.0629 168.8 41.4099C164.613 41.553 160.54 42.8095 157 45.0499C154.577 46.6828 152.882 49.1922 152.272 52.0497C151.662 54.9073 152.185 57.8901 153.73 60.3699V60.3699Z" fill="#BA68C8"/>
<path opacity="0.8" d="M157 58.52C159.05 62.06 165.38 61.71 168.28 55.44C168.28 55.44 164.87 57.14 163.79 55.38C162.71 53.62 168.94 49.79 170.49 49.19C170.49 49.19 164.59 48.29 160.34 50.75C157.31 52.51 155.1 55.18 157 58.52Z" fill="white"/>
</svg>
