<svg width="500" height="500" viewBox="0 0 500 500" fill="none" xmlns="http://www.w3.org/2000/svg">
<path d="M279.59 152.46C266.27 143.18 255.02 128.46 244.87 116.36C198.87 61.36 120 67.36 62.9901 106.13C41.5201 120.71 26.4101 136.63 18.1901 162.13C12.1301 181 15.0001 203.87 29.9001 216.83C39.5201 225.22 52.5001 228.34 64.0001 233.83C112.85 257.29 65.4501 299.65 43.3701 323.45C26.4801 341.65 19.3701 359.85 24.7101 385.01C32.9901 423.67 76.3901 448.85 111.1 458.47C162.78 472.79 213.67 462.71 233.33 455.77C272.82 441.85 308.6 418.18 339.09 389.69C360.61 369.57 379.99 347.01 403.61 329.4C417.96 318.7 433.7 309.97 448.08 299.3C462.46 288.63 475.74 275.59 482.74 259.11C492.82 235.36 484.74 206.35 465.37 189.71C446 173.07 418.31 166.31 393.54 165.57C351.74 164.34 313.27 175.93 279.59 152.46Z" fill="#263238"/>
<path d="M288 138.36C315.6 158.59 353.38 153.36 386 152.25C394.55 151.96 405 148.69 410.34 141.97C417 133.49 413.22 124.4 406.78 115.76C395 100 377.64 89.2 359.76 81C337.9 71 321.23 63.5 274.81 60.32C255.81 59.02 241.5 62.67 238.34 67.32C232.49 76.03 239.99 84.2 245.83 92.64C256.652 108.309 269.421 122.54 283.83 134.99C285.197 136.197 286.587 137.32 288 138.36Z" fill="#263238"/>
<path opacity="0.3" d="M127.87 211.08C119.365 211.08 111.052 208.558 103.98 203.833C96.9091 199.108 91.3976 192.393 88.1431 184.535C84.8885 176.678 84.037 168.032 85.6961 159.691C87.3553 151.35 91.4506 143.688 97.4643 137.674C103.478 131.661 111.14 127.565 119.481 125.906C127.822 124.247 136.468 125.099 144.325 128.353C152.183 131.608 158.898 137.119 163.623 144.191C168.348 151.262 170.87 159.575 170.87 168.08C170.87 179.484 166.34 190.422 158.275 198.486C150.211 206.55 139.274 211.08 127.87 211.08V211.08ZM127.87 126.17C119.563 126.17 111.443 128.633 104.536 133.248C97.6291 137.863 92.2458 144.423 89.067 152.097C85.8881 159.772 85.0563 168.217 86.6769 176.364C88.2975 184.511 92.2976 191.995 98.1714 197.869C104.045 203.742 111.529 207.742 119.676 209.363C127.823 210.984 136.268 210.152 143.943 206.973C151.617 203.794 158.177 198.411 162.792 191.504C167.407 184.597 169.87 176.477 169.87 168.17C169.87 157.031 165.445 146.348 157.568 138.472C149.692 130.595 139.009 126.17 127.87 126.17V126.17Z" fill="white"/>
<path opacity="0.2" d="M127.87 214.2C118.758 214.2 109.851 211.498 102.275 206.436C94.6988 201.374 88.7939 194.178 85.3069 185.76C81.82 177.342 80.9077 168.079 82.6853 159.142C84.4629 150.205 88.8507 141.997 95.2937 135.554C101.737 129.111 109.946 124.723 118.882 122.945C127.819 121.168 137.082 122.08 145.5 125.567C153.918 129.054 161.114 134.959 166.176 142.535C171.238 150.111 173.94 159.018 173.94 168.13C173.927 180.344 169.069 192.055 160.432 200.692C151.795 209.329 140.085 214.187 127.87 214.2ZM127.87 123.06C118.956 123.06 110.242 125.703 102.831 130.656C95.4188 135.608 89.6421 142.647 86.2308 150.882C82.8196 159.118 81.927 168.18 83.6661 176.923C85.4051 185.665 89.6976 193.696 96.0008 199.999C102.304 206.302 110.335 210.595 119.077 212.334C127.82 214.073 136.882 213.181 145.118 209.769C153.353 206.358 160.392 200.581 165.344 193.17C170.297 185.758 172.94 177.044 172.94 168.13C172.929 156.18 168.178 144.722 159.728 136.272C151.278 127.822 139.82 123.071 127.87 123.06V123.06Z" fill="white"/>
<path opacity="0.1" d="M127.87 218C117.999 218 108.349 215.073 100.141 209.589C91.9338 204.104 85.5367 196.31 81.7592 187.19C77.9816 178.07 76.9932 168.035 78.919 158.353C80.8448 148.671 85.5982 139.778 92.5783 132.798C99.5583 125.818 108.451 121.065 118.133 119.139C127.815 117.213 137.85 118.202 146.97 121.979C156.09 125.757 163.884 132.154 169.369 140.362C174.853 148.569 177.78 158.219 177.78 168.09C177.756 181.32 172.49 194.001 163.135 203.355C153.781 212.71 141.1 217.976 127.87 218ZM127.87 119.18C118.197 119.18 108.74 122.049 100.697 127.423C92.6538 132.797 86.3849 140.436 82.683 149.373C78.9812 158.31 78.0126 168.144 79.8998 177.632C81.787 187.119 86.4452 195.834 93.2854 202.675C100.126 209.515 108.841 214.173 118.328 216.06C127.816 217.947 137.65 216.979 146.587 213.277C155.524 209.575 163.163 203.306 168.537 195.263C173.911 187.22 176.78 177.763 176.78 168.09C176.746 155.133 171.58 142.716 162.414 133.558C153.248 124.399 140.828 119.244 127.87 119.22V119.18Z" fill="white"/>
<path opacity="0.1" d="M127.87 222.81C117.053 222.81 106.479 219.602 97.4848 213.592C88.4908 207.583 81.4811 199.041 77.342 189.047C73.203 179.053 72.1205 168.056 74.2315 157.447C76.3426 146.838 81.5523 137.093 89.2018 129.445C96.8514 121.797 106.597 116.589 117.207 114.48C127.816 112.371 138.813 113.455 148.806 117.596C158.799 121.737 167.34 128.748 173.348 137.743C179.356 146.738 182.562 157.313 182.56 168.13C182.544 182.629 176.777 196.529 166.523 206.781C156.27 217.032 142.369 222.797 127.87 222.81V222.81ZM127.87 114.44C117.251 114.44 106.871 117.589 98.0414 123.488C89.2121 129.388 82.3305 137.773 78.2669 147.584C74.2032 157.394 73.14 168.19 75.2116 178.604C77.2832 189.019 82.3967 198.586 89.9054 206.095C97.4141 213.603 106.981 218.717 117.396 220.788C127.81 222.86 138.606 221.797 148.416 217.733C158.227 213.669 166.612 206.788 172.512 197.959C178.411 189.129 181.56 178.749 181.56 168.13C181.544 153.895 175.882 140.248 165.817 130.183C155.752 120.118 142.105 114.456 127.87 114.44V114.44Z" fill="white"/>
<path d="M127.87 207.57C149.652 207.57 167.31 189.912 167.31 168.13C167.31 146.348 149.652 128.69 127.87 128.69C106.088 128.69 88.4299 146.348 88.4299 168.13C88.4299 189.912 106.088 207.57 127.87 207.57Z" fill="#BA68C8"/>
<path opacity="0.7" d="M127.87 207.57C149.652 207.57 167.31 189.912 167.31 168.13C167.31 146.348 149.652 128.69 127.87 128.69C106.088 128.69 88.4299 146.348 88.4299 168.13C88.4299 189.912 106.088 207.57 127.87 207.57Z" fill="white"/>
<path d="M123.46 144.46C123.18 143.78 122.88 143.12 122.58 142.46C122.03 141.31 115.99 130.46 115.58 130.62C113.193 131.399 110.886 132.404 108.69 133.62C111.09 137.18 114.1 140.62 116.23 144.34C117.679 147.111 118.861 150.015 119.76 153.01C120.139 154.288 120.702 155.504 121.43 156.62C121.8 157.178 122.279 157.655 122.837 158.025C123.395 158.394 124.022 158.647 124.68 158.77C124.891 158.809 125.108 158.791 125.31 158.72C125.78 158.52 125.91 157.92 125.95 157.41C126.116 152.96 125.264 148.531 123.46 144.46V144.46Z" fill="#BA68C8"/>
<path d="M156.77 195C150.09 188.51 137.65 176.36 132.42 170.87C128.42 166.72 122.98 164.87 118.98 160.87C116.24 158.14 115.17 154.21 114.08 150.5C113.47 148.41 112.35 141.83 109.22 142.57C109.12 143.65 109.77 146.13 108.61 146.86C107.45 147.59 106.61 145.41 106.2 144.78C105.79 144.15 102.2 138.25 102.27 138.2C101.139 139.164 100.064 140.193 99.0498 141.28C102.52 147.68 108.05 157.96 109.37 160.08C111.24 163.21 109.37 166.67 107.04 163.31C105.6 161.22 99.1598 153.04 94.5098 147.16C92.9845 149.569 91.727 152.138 90.7598 154.82C94.4198 160.19 98.5898 166.82 104.56 169.82C105.532 170.375 106.62 170.697 107.737 170.759C108.855 170.822 109.972 170.623 111 170.18C112.35 169.5 113.42 168.25 114.89 167.91C116.73 167.48 118.54 168.61 120.07 169.72C123.24 172.01 126.33 174.42 129.26 177.01C130.783 178.145 132.175 179.446 133.41 180.89C134.01 181.77 134.13 183.7 133.13 184.42C133.13 184.79 131.69 184.73 131.49 184.68C130.962 184.487 130.474 184.199 130.05 183.83C128.74 182.95 127.34 182.18 125.99 181.36C124.99 180.72 123.61 180.07 122.57 180.71C122.58 181.255 122.706 181.792 122.938 182.285C123.171 182.778 123.506 183.216 123.92 183.57C126.563 186.452 129.48 189.071 132.63 191.39C133.212 191.858 133.867 192.226 134.57 192.48C134.922 192.606 135.299 192.648 135.67 192.603C136.042 192.558 136.398 192.427 136.71 192.22C137.33 191.76 137.62 190.94 138.29 190.55C138.615 190.392 138.975 190.32 139.335 190.341C139.696 190.362 140.045 190.475 140.35 190.67C141.77 191.48 142.85 193.04 144.21 194.01C146.533 195.942 148.709 198.044 150.72 200.3C152.911 198.743 154.938 196.967 156.77 195V195Z" fill="#BA68C8"/>
<path d="M127.87 207.57C132.791 207.574 137.67 206.651 142.25 204.85C135.77 199.01 125.46 189.85 122.37 187.85C119.62 186.07 117.72 188.85 116.1 190.72C115.31 191.64 114.38 192.8 113.1 193.06C111.26 193.43 109.47 191.52 109.42 189.75C109.471 188.349 110.033 187.015 111 186C111.93 184.93 113.11 184 113.58 182.67C114.32 180.6 113.11 178.38 111.94 176.51C111.564 175.701 110.885 175.073 110.05 174.76C108.85 174.5 107.82 175.54 106.96 176.4C105.935 177.437 104.794 178.353 103.56 179.13C102.813 179.681 101.918 179.995 100.99 180.03C99.9792 179.889 99.031 179.458 98.2599 178.79C96.274 177.428 94.5157 175.761 93.0499 173.85C92.2399 172.85 91.4499 171.78 90.6599 170.73C90.2199 170.14 88.4199 168.41 88.4199 167.73C88.4199 167.86 88.4199 167.99 88.4199 168.12C88.4186 173.301 89.4381 178.432 91.4202 183.218C93.4023 188.005 96.3081 192.355 99.9716 196.018C103.635 199.682 107.985 202.588 112.772 204.57C117.558 206.552 122.689 207.571 127.87 207.57V207.57Z" fill="#BA68C8"/>
<path d="M144 132.13C143.81 134.26 144.73 136.78 147.77 140.82C149.36 142.93 151.02 145 152.7 147.05C154.01 148.65 156.37 150.54 156.35 152.77C156.35 154.26 155.22 155.5 154.07 156.44C153.079 157.256 152.011 157.973 150.88 158.58C149.95 159.07 148.88 159.7 148.82 160.76C148.76 161.82 149.74 162.4 150.58 162.89C153.76 164.75 156.987 166.517 160.26 168.19C161.68 168.92 163.56 169.5 164.75 170.57C165.58 171.32 166.09 172.39 166.98 173.12C167.271 171.47 167.391 169.795 167.34 168.12C167.338 160.508 165.134 153.06 160.992 146.673C156.851 140.287 150.949 135.236 144 132.13V132.13Z" fill="#BA68C8"/>
<path d="M143.75 155.74C144.245 155.375 144.763 155.041 145.3 154.74C146.47 154.11 147.83 153.41 148.14 152.12C148.54 150.38 146.8 148.96 145.27 148.03L140.51 145.12C139.718 144.688 138.994 144.142 138.36 143.5C137.754 142.758 137.278 141.92 136.95 141.02C135.983 138.712 135.168 136.344 134.51 133.93C134.26 133.04 133.77 129.08 132.4 128.93C129.275 128.575 126.119 128.598 123 129C123.8 128.95 125.62 133.76 125.88 134.47C127.095 137.601 128.068 140.82 128.79 144.1C129.39 147.32 133.39 148.93 135.91 150.68C136.29 150.898 136.599 151.221 136.8 151.61C136.929 152.123 136.85 152.666 136.58 153.12C135.771 154.564 134.88 155.959 133.91 157.3C132.943 158.663 132.548 160.35 132.81 162C133.318 163.458 134.23 164.741 135.44 165.7C143.86 173.76 152.76 181.52 160.73 189.96C162.431 187.408 163.827 184.666 164.89 181.79C165.18 181.01 160.58 177.3 159.98 176.79C157.27 174.64 154.22 172.88 151.5 170.68L143.93 164.54C142.706 163.741 141.757 162.585 141.21 161.23C141.051 160.554 141.048 159.851 141.2 159.174C141.353 158.497 141.657 157.863 142.09 157.32C142.562 156.714 143.121 156.181 143.75 155.74V155.74Z" fill="#BA68C8"/>
<g opacity="0.2">
<path opacity="0.2" d="M132.29 191.8C132.57 192.48 132.86 193.13 133.17 193.8C133.72 194.95 139.76 205.8 140.17 205.64C142.56 204.869 144.867 203.864 147.06 202.64C144.66 199.08 141.65 195.64 139.52 191.93C138.066 189.157 136.884 186.25 135.99 183.25C135.609 181.971 135.043 180.755 134.31 179.64C133.94 179.085 133.462 178.61 132.906 178.243C132.35 177.875 131.725 177.623 131.07 177.5C130.864 177.44 130.646 177.44 130.44 177.5C129.97 177.69 129.84 178.29 129.8 178.8C129.617 183.267 130.469 187.717 132.29 191.8Z" fill="white"/>
<path opacity="0.2" d="M98.9998 141.29C105.68 147.79 118.11 159.93 123.35 165.42C127.35 169.58 132.79 171.42 136.79 175.42C139.52 178.15 140.6 182.08 141.68 185.79C142.29 187.88 143.42 194.46 146.55 193.72C146.65 192.64 146 190.16 147.16 189.43C148.32 188.7 149.16 190.87 149.56 191.51C149.96 192.15 153.56 198.03 153.5 198.09C154.62 197.116 155.688 196.085 156.7 195C153.23 188.59 147.64 178.32 146.38 176.2C144.51 173.06 146.38 169.6 148.7 172.96C150.15 175.05 156.58 183.24 161.24 189.11C162.763 186.7 164.02 184.131 164.99 181.45C161.33 176.08 157.15 169.45 151.19 166.45C150.218 165.895 149.13 165.573 148.012 165.511C146.895 165.448 145.778 165.647 144.75 166.09C143.4 166.77 142.33 168.02 140.86 168.36C139.02 168.79 137.21 167.65 135.68 166.54C132.51 164.25 129.42 161.84 126.49 159.26C125.17 158.09 123.34 156.83 122.34 155.37C121.74 154.49 121.62 152.56 122.62 151.84C122.62 151.47 124.05 151.53 124.26 151.58C124.783 151.783 125.269 152.07 125.7 152.43C127.01 153.31 128.41 154.09 129.76 154.91C130.76 155.55 132.13 156.19 133.18 155.55C133.171 155.005 133.044 154.469 132.81 153.977C132.575 153.485 132.238 153.05 131.82 152.7C129.187 149.81 126.273 147.19 123.12 144.88C122.537 144.411 121.882 144.04 121.18 143.78C120.825 143.659 120.447 143.619 120.075 143.664C119.703 143.709 119.345 143.838 119.03 144.04C118.42 144.5 118.12 145.33 117.46 145.71C117.136 145.872 116.776 145.948 116.415 145.928C116.054 145.909 115.704 145.796 115.4 145.6C113.98 144.78 112.89 143.22 111.54 142.26C109.207 140.339 107.021 138.246 105 136C102.827 137.557 100.817 139.329 98.9998 141.29V141.29Z" fill="white"/>
<path opacity="0.2" d="M127.87 128.69C122.949 128.69 118.072 129.609 113.49 131.4C119.98 137.25 130.29 146.4 133.38 148.4C136.13 150.18 138.03 147.4 139.65 145.52C140.44 144.61 141.37 143.44 142.65 143.19C144.49 142.81 146.28 144.73 146.33 146.5C146.275 147.899 145.71 149.23 144.74 150.24C143.82 151.31 142.64 152.24 142.16 153.56C141.42 155.64 142.64 157.86 143.81 159.72C144.186 160.531 144.864 161.163 145.7 161.48C146.89 161.74 147.93 160.7 148.79 159.83C149.811 158.796 150.949 157.883 152.18 157.11C152.928 156.553 153.828 156.236 154.76 156.2C155.77 156.343 156.717 156.773 157.49 157.44C159.476 158.802 161.234 160.469 162.7 162.38C163.5 163.38 164.3 164.46 165.09 165.51C165.53 166.09 167.33 167.82 167.33 168.51C167.33 168.38 167.33 168.25 167.33 168.12C167.328 162.94 166.307 157.811 164.323 153.025C162.339 148.24 159.432 143.893 155.767 140.231C152.103 136.57 147.753 133.666 142.967 131.685C138.18 129.705 133.05 128.687 127.87 128.69V128.69Z" fill="white"/>
<path opacity="0.2" d="M111.77 204.13C111.96 202 111.04 199.47 108 195.44C106.41 193.32 104.75 191.26 103.07 189.21C101.76 187.61 99.3898 185.71 99.4198 183.48C99.4198 181.99 100.55 180.76 101.7 179.81C102.691 178.997 103.759 178.283 104.89 177.68C105.81 177.18 106.89 176.55 106.89 175.5C106.89 174.45 105.97 173.86 105.14 173.37C101.96 171.51 98.7298 169.74 95.4498 168.06C94.0298 167.33 92.1598 166.76 90.9698 165.68C90.1298 164.93 89.6198 163.87 88.7398 163.13C88.45 164.78 88.3293 166.455 88.3798 168.13C88.3862 175.748 90.5983 183.202 94.749 189.59C98.8997 195.979 104.811 201.029 111.77 204.13V204.13Z" fill="white"/>
<path opacity="0.2" d="M112 180.52C111.508 180.89 110.99 181.224 110.45 181.52C109.29 182.16 107.92 182.85 107.62 184.15C107.21 185.89 108.96 187.31 110.49 188.24L115.25 191.15C116.041 191.579 116.766 192.121 117.4 192.76C118.005 193.502 118.482 194.34 118.81 195.24C119.778 197.551 120.593 199.922 121.25 202.34C121.49 203.23 121.99 207.19 123.35 207.34C124.854 207.516 126.366 207.606 127.88 207.61C129.515 207.608 131.148 207.505 132.77 207.3C131.97 207.35 130.14 202.54 129.89 201.82C128.675 198.688 127.698 195.469 126.97 192.19C126.38 188.98 122.38 187.37 119.86 185.61C119.475 185.398 119.165 185.074 118.97 184.68C118.903 184.426 118.887 184.162 118.925 183.902C118.963 183.643 119.053 183.394 119.19 183.17C120.001 181.733 120.889 180.341 121.85 179C122.82 177.639 123.219 175.952 122.96 174.3C122.452 172.842 121.54 171.559 120.33 170.6C111.9 162.49 103 154.74 94.9999 146.3C93.3009 148.853 91.9048 151.594 90.8399 154.47C90.5599 155.25 95.1599 158.95 95.7599 159.47C98.4699 161.63 101.52 163.39 104.23 165.59L111.81 171.73C113.028 172.531 113.976 173.681 114.53 175.03C114.686 175.708 114.688 176.412 114.536 177.09C114.384 177.769 114.081 178.404 113.65 178.95C113.18 179.551 112.624 180.08 112 180.52V180.52Z" fill="white"/>
</g>
<path opacity="0.1" d="M166.87 174.05C164 188.63 137.66 202 116.59 193C94.1798 183.41 89.9598 153.1 100.93 139.37C96.3368 143.668 92.8384 149.001 90.7264 154.926C88.6145 160.851 87.9502 167.195 88.7891 173.429C89.628 179.663 91.9457 185.606 95.5489 190.761C99.152 195.917 103.936 200.136 109.502 203.067C115.067 205.997 121.253 207.554 127.543 207.607C133.833 207.661 140.044 206.209 145.658 203.373C151.273 200.537 156.128 196.399 159.818 191.305C163.507 186.211 165.925 180.309 166.87 174.09V174.05Z" fill="black"/>
<path opacity="0.6" d="M151.268 152.3C152.739 143.239 146.586 134.702 137.526 133.232C128.466 131.761 119.929 137.913 118.458 146.974C116.987 156.034 123.14 164.571 132.2 166.042C141.261 167.513 149.798 161.36 151.268 152.3Z" fill="white"/>
<path opacity="0.6" d="M155.73 175.09C159.933 175.09 163.34 171.683 163.34 167.48C163.34 163.277 159.933 159.87 155.73 159.87C151.527 159.87 148.12 163.277 148.12 167.48C148.12 171.683 151.527 175.09 155.73 175.09Z" fill="white"/>
<path opacity="0.1" d="M88.4299 168.13C88.4328 176.711 91.2333 185.056 96.4067 191.902C101.58 198.748 108.845 203.72 117.098 206.065C125.352 208.41 134.146 208 142.146 204.897C150.146 201.794 156.916 196.167 161.43 188.87C160.54 190.26 149.38 207.81 121.81 202.76C93.0999 197.5 88.4299 168.14 88.9199 161.94C88.5943 163.987 88.4305 166.057 88.4299 168.13V168.13Z" fill="black"/>
<path d="M414.474 273.258C424.459 252.456 415.689 227.498 394.887 217.514C374.085 207.529 349.127 216.298 339.142 237.101C329.158 257.903 337.927 282.861 358.729 292.846C379.532 302.83 404.49 294.061 414.474 273.258Z" fill="#BA68C8"/>
<path opacity="0.116667" d="M407.871 267.756C415.97 248.995 407.327 227.22 388.566 219.121C369.805 211.022 348.03 219.665 339.931 238.426C331.832 257.187 340.475 278.962 359.236 287.061C377.997 295.16 399.771 286.517 407.871 267.756Z" fill="white"/>
<path opacity="0.233333" d="M400.244 264.792C407.79 248.67 400.837 229.484 384.715 221.939C368.593 214.394 349.407 221.346 341.862 237.468C334.317 253.59 341.27 272.776 357.391 280.321C373.513 287.866 392.699 280.914 400.244 264.792Z" fill="white"/>
<path opacity="0.35" d="M393.543 259.492C399.306 245.47 392.61 229.431 378.587 223.669C364.565 217.906 348.526 224.602 342.764 238.624C337.001 252.647 343.697 268.686 357.72 274.448C371.742 280.21 387.781 273.514 393.543 259.492Z" fill="white"/>
<path opacity="0.466667" d="M386.281 255.592C391.002 243.995 385.428 230.768 373.831 226.047C362.235 221.327 349.008 226.901 344.287 238.497C339.567 250.093 345.14 263.321 356.737 268.041C368.333 272.762 381.56 267.188 386.281 255.592Z" fill="white"/>
<path opacity="0.583333" d="M369.457 261.469C378.546 257.58 382.76 247.059 378.87 237.97C374.981 228.882 364.46 224.667 355.371 228.557C346.283 232.446 342.068 242.967 345.958 252.056C349.848 261.144 360.369 265.359 369.457 261.469Z" fill="white"/>
<path opacity="0.7" d="M368.817 252.271C373.941 247.147 373.941 238.84 368.817 233.717C363.694 228.593 355.387 228.593 350.263 233.717C345.139 238.84 345.139 247.147 350.263 252.271C355.387 257.395 363.694 257.395 368.817 252.271Z" fill="white"/>
<path opacity="0.05" d="M415.58 270.69C413.54 275.783 410.517 280.425 406.683 284.35C402.849 288.275 398.279 291.406 393.235 293.565C388.191 295.724 382.771 296.869 377.285 296.933C371.799 296.997 366.353 295.98 361.26 293.94C360.58 293.67 359.92 293.38 359.26 293.08C368.805 293.137 378.081 289.925 385.547 283.978C393.013 278.031 398.218 269.708 400.296 260.393C402.375 251.077 401.203 241.33 396.973 232.774C392.744 224.217 385.713 217.366 377.05 213.36C383.855 213.412 390.545 215.123 396.539 218.346C402.533 221.57 407.65 226.207 411.445 231.856C415.241 237.504 417.6 243.994 418.319 250.762C419.038 257.529 418.094 264.37 415.57 270.69H415.58Z" fill="#455A64"/>
<path opacity="0.1" d="M402 225.71C408.186 231.141 412.485 238.397 414.275 246.432C416.066 254.466 415.256 262.861 411.963 270.405C408.669 277.948 403.062 284.249 395.952 288.397C388.842 292.545 380.598 294.325 372.41 293.48C380.164 292.305 387.422 288.94 393.328 283.781C399.235 278.621 403.545 271.882 405.751 264.355C407.957 256.829 407.968 248.83 405.781 241.298C403.595 233.766 399.303 227.015 393.41 221.84C391.727 220.364 389.928 219.027 388.03 217.84C393.186 219.457 397.945 222.138 402 225.71V225.71Z" fill="#455A64"/>
<path opacity="0.5" d="M371.228 275.941C374.192 269.329 371.233 261.566 364.621 258.603C358.009 255.639 350.246 258.597 347.283 265.21C344.32 271.822 347.278 279.584 353.89 282.548C360.502 285.511 368.265 282.553 371.228 275.941Z" fill="white"/>
<path opacity="0.5" d="M375.994 241.221C380.464 235.518 379.465 227.272 373.762 222.802C368.059 218.331 359.812 219.331 355.342 225.034C350.872 230.737 351.872 238.983 357.575 243.454C363.277 247.924 371.524 246.924 375.994 241.221Z" fill="white"/>
<path opacity="0.5" d="M342.86 254.34C341.672 253.864 340.651 253.047 339.928 251.992C339.204 250.936 338.81 249.69 338.795 248.41C338.779 247.13 339.144 245.875 339.842 244.803C340.541 243.73 341.542 242.889 342.718 242.385C343.895 241.882 345.194 241.738 346.452 241.973C347.71 242.208 348.87 242.811 349.785 243.705C350.701 244.6 351.331 245.745 351.595 246.998C351.859 248.25 351.746 249.552 351.27 250.74C350.632 252.332 349.387 253.606 347.81 254.281C346.233 254.956 344.453 254.978 342.86 254.34V254.34Z" fill="white"/>
<g opacity="0.1">
<path opacity="0.1" d="M460.21 215.13C458.83 212.69 455.31 208.61 447.21 208.61C438.79 208.61 425.01 212.87 406.21 221.28L403.94 222.28L403.06 222.66C403.35 222.89 403.64 223.12 403.92 223.38L404.34 223.2L406.62 222.2C425.27 213.85 438.92 209.62 447.19 209.62C454.77 209.62 458.04 213.39 459.31 215.62C464.91 225.5 454.13 238.69 423.31 259.73C421.503 260.97 419.653 262.207 417.76 263.44C409.54 268.84 400.66 274.25 391.29 279.55C381.68 285 371.93 290.11 362.75 294.5C360.7 295.5 358.68 296.43 356.7 297.33C336.77 306.45 322.27 311.07 313.58 311.07C305.99 311.07 302.73 307.3 301.46 305.07C296.06 295.54 305.26 283.62 333.2 263.94L335.25 262.5L335.62 262.23C335.55 261.87 335.5 261.51 335.45 261.14L334.67 261.69L332.67 263.13C304.2 283.13 294.92 295.47 300.67 305.56C302.04 308 305.57 312.08 313.67 312.08C322.5 312.08 337.15 307.43 357.21 298.25C359.49 297.25 361.82 296.11 364.21 294.97C373.13 290.67 382.58 285.71 391.9 280.43C400.97 275.29 409.57 270.07 417.57 264.84C419.763 263.407 421.903 261.98 423.99 260.56C455.26 239.15 466.12 225.56 460.21 215.13Z" fill="white"/>
</g>
<g opacity="0.1">
<path opacity="0.1" d="M421.61 257.25C420.54 257.98 419.46 258.7 418.37 259.43C409.58 265.29 400 271.18 389.8 277C379.39 282.89 368.8 288.39 359 293C357.8 293.57 356.61 294.12 355.44 294.66C342.01 300.8 323.85 308.12 313.57 308.12C307.81 308.12 305.22 305.68 304.06 303.63C299.73 295.98 309.25 284.51 334.92 266.44L336.29 265.44C336.37 265.78 336.47 266.12 336.57 266.44L335.5 267.2C310.34 284.92 300.91 295.99 304.93 303.09C305.93 304.9 308.29 307.09 313.57 307.09C323.67 307.09 341.69 299.82 355.03 293.72L357.85 292.41C367.85 287.73 378.66 282.13 389.31 276.1C399.73 270.19 409.53 264.17 418.48 258.18C419.35 257.61 420.2 257.03 421.05 256.45C457.78 231.45 458.51 222.3 455.86 217.62C454.86 215.81 452.5 213.62 447.22 213.62C437.62 213.62 420.75 220.27 408.29 225.85L407.1 226.39C406.85 226.13 406.61 225.87 406.35 225.62L407.88 224.94C420.43 219.32 437.45 212.62 447.22 212.62C452.98 212.62 455.57 215.06 456.73 217.11C459.57 222.12 459 231.74 421.61 257.25Z" fill="white"/>
</g>
<g opacity="0.2">
<path opacity="0.2" d="M419.92 254.77L418.58 255.68C409.34 261.92 399.17 268.19 388.32 274.33C377.23 280.61 365.98 286.43 355.66 291.21L354.2 291.88C335.6 300.38 321.2 305.07 313.57 305.07C310.11 305.07 307.78 304.07 306.67 302.07C303.36 296.23 313.17 285.35 336.67 268.81L337.21 268.43C337.32 268.76 337.43 269.08 337.56 269.43L337.24 269.65C309 289.54 305.5 298 307.54 301.61C308.46 303.24 310.49 304.07 313.54 304.07C321 304.07 335.28 299.42 353.75 290.97L354.6 290.58C365.06 285.76 376.53 279.86 387.8 273.46C398.8 267.2 409.18 260.82 418.55 254.46L419.33 253.93C444.28 236.93 456.33 224.53 453.22 219.06C452.3 217.43 450.27 216.6 447.22 216.6C440.14 216.6 426.75 220.85 409.51 228.6L409.17 228.75L408.51 227.96L409.11 227.69C426.47 219.91 440.01 215.63 447.22 215.63C450.68 215.63 453.01 216.63 454.12 218.63C457.61 224.74 446.11 236.92 419.92 254.77Z" fill="white"/>
</g>
<g opacity="0.3">
<path opacity="0.3" d="M428.6 231.36L428.4 231.91C428 233 426.08 236.28 416.89 243.43L416.4 243.81C405.843 251.729 394.761 258.922 383.23 265.34C369.81 272.94 356.8 279.27 346.58 283.16L345.98 283.39C339.81 285.7 334.98 286.98 332.33 286.98C331.995 286.983 331.66 286.956 331.33 286.9L330.76 286.78L330.96 286.23C331.32 285.23 332.96 282.36 340.67 276.13C340.83 276.43 341 276.72 341.18 277.01C334.98 282.01 332.89 284.76 332.18 286.01H332.32C334.82 286.01 339.39 284.81 345.26 282.62L346.26 282.26C356.43 278.38 369.4 272.07 382.77 264.5C394.251 258.09 405.283 250.906 415.79 243L416.58 242.39C424.02 236.56 426.41 233.47 427.17 232.15H427C424.47 232.15 419.77 233.4 413.73 235.67C413.58 235.37 413.42 235.07 413.25 234.78C419.45 232.44 424.33 231.15 427 231.15C427.335 231.146 427.67 231.173 428 231.23L428.6 231.36Z" fill="white"/>
</g>
<path d="M452 219.81C454.61 224.43 440.84 237.51 418.56 252.7C409.36 258.98 398.7 265.61 387.14 272.16C375.14 278.94 363.61 284.85 353.21 289.6C329.27 300.55 311.47 305.42 308.89 300.87C306.45 296.55 318.35 284.82 338.14 270.87C338.69 272.21 339.3 273.52 339.98 274.8C332.48 280.8 328.46 285.48 329.58 287.47C330.7 289.46 337.39 288.28 347.16 284.56C359.85 279.469 372.161 273.481 384 266.64C395.583 260.189 406.716 252.959 417.32 245C426.16 238.17 431.05 232.83 429.83 230.67C428.61 228.51 422.15 229.83 412.52 233.48C411.78 232.26 410.98 231.08 410.13 229.95C432.8 219.8 449.46 215.42 452 219.81Z" fill="url(#paint0_linear)"/>
<path opacity="0.5" d="M349.76 341.79C348.101 341.79 346.479 341.298 345.099 340.376C343.719 339.454 342.644 338.144 342.009 336.611C341.374 335.078 341.208 333.391 341.531 331.763C341.855 330.136 342.654 328.641 343.827 327.467C345.001 326.294 346.496 325.495 348.123 325.171C349.751 324.847 351.438 325.014 352.971 325.649C354.504 326.284 355.814 327.359 356.736 328.739C357.658 330.119 358.15 331.741 358.15 333.4C358.15 335.625 357.266 337.759 355.693 339.333C354.119 340.906 351.985 341.79 349.76 341.79V341.79ZM349.76 325.69C348.235 325.69 346.745 326.142 345.477 326.989C344.209 327.837 343.221 329.041 342.637 330.45C342.053 331.858 341.901 333.409 342.198 334.904C342.496 336.4 343.23 337.774 344.308 338.852C345.387 339.93 346.76 340.664 348.256 340.962C349.752 341.259 351.302 341.107 352.711 340.523C354.119 339.94 355.324 338.951 356.171 337.683C357.018 336.416 357.47 334.925 357.47 333.4C357.467 331.356 356.654 329.396 355.209 327.951C353.764 326.506 351.804 325.693 349.76 325.69V325.69Z" fill="#BA68C8"/>
<path d="M352.12 333.4C352.12 333.867 351.981 334.323 351.722 334.711C351.463 335.099 351.094 335.402 350.663 335.58C350.232 335.759 349.757 335.806 349.299 335.715C348.842 335.624 348.421 335.399 348.091 335.069C347.761 334.739 347.536 334.318 347.445 333.86C347.354 333.403 347.401 332.928 347.58 332.497C347.758 332.066 348.061 331.697 348.449 331.438C348.837 331.178 349.293 331.04 349.76 331.04C350.386 331.04 350.986 331.289 351.429 331.731C351.871 332.174 352.12 332.774 352.12 333.4V333.4Z" fill="white"/>
<path opacity="0.5" d="M243.45 191C240.835 191 238.279 190.224 236.104 188.771C233.93 187.318 232.236 185.253 231.235 182.837C230.235 180.421 229.974 177.762 230.485 175.197C230.996 172.633 232.256 170.277 234.106 168.429C235.955 166.58 238.312 165.322 240.877 164.813C243.442 164.304 246.101 164.567 248.516 165.569C250.931 166.571 252.995 168.267 254.447 170.443C255.898 172.618 256.672 175.175 256.67 177.79C256.665 181.294 255.27 184.652 252.791 187.129C250.313 189.605 246.954 190.997 243.45 191ZM243.45 165.25C240.969 165.252 238.543 165.99 236.482 167.371C234.42 168.752 232.814 170.713 231.868 173.007C230.921 175.301 230.677 177.824 231.165 180.257C231.653 182.69 232.852 184.924 234.611 186.675C236.369 188.426 238.607 189.616 241.042 190.095C243.477 190.573 245.999 190.319 248.289 189.363C250.579 188.407 252.534 186.794 253.907 184.727C255.279 182.659 256.008 180.231 256 177.75C255.997 174.423 254.674 171.234 252.321 168.882C249.967 166.531 246.777 165.21 243.45 165.21V165.25Z" fill="#BA68C8"/>
<path d="M247.23 177.75C247.23 178.498 247.008 179.228 246.593 179.85C246.178 180.472 245.587 180.956 244.896 181.242C244.206 181.528 243.446 181.603 242.712 181.457C241.979 181.312 241.306 180.952 240.777 180.423C240.248 179.894 239.888 179.221 239.743 178.487C239.597 177.754 239.672 176.994 239.958 176.303C240.244 175.613 240.728 175.022 241.35 174.607C241.971 174.192 242.702 173.97 243.45 173.97C243.947 173.969 244.439 174.066 244.898 174.255C245.357 174.445 245.774 174.723 246.126 175.074C246.477 175.426 246.755 175.843 246.945 176.302C247.134 176.761 247.231 177.253 247.23 177.75Z" fill="white"/>
<path opacity="0.5" d="M349.21 139.76C347.551 139.76 345.929 139.268 344.549 138.346C343.169 137.424 342.094 136.114 341.459 134.581C340.824 133.048 340.658 131.361 340.981 129.733C341.305 128.106 342.104 126.611 343.277 125.437C344.451 124.264 345.946 123.465 347.573 123.141C349.201 122.818 350.888 122.984 352.421 123.619C353.954 124.254 355.264 125.329 356.186 126.709C357.108 128.089 357.6 129.711 357.6 131.37C357.597 133.594 356.713 135.727 355.14 137.3C353.567 138.873 351.434 139.757 349.21 139.76ZM349.21 123.66C347.685 123.66 346.195 124.112 344.927 124.959C343.659 125.807 342.671 127.011 342.087 128.42C341.503 129.828 341.351 131.379 341.648 132.874C341.946 134.37 342.68 135.744 343.758 136.822C344.837 137.9 346.21 138.634 347.706 138.932C349.202 139.229 350.752 139.077 352.161 138.493C353.569 137.91 354.774 136.921 355.621 135.653C356.468 134.386 356.92 132.895 356.92 131.37C356.917 129.326 356.104 127.367 354.659 125.921C353.214 124.476 351.254 123.663 349.21 123.66V123.66Z" fill="#BA68C8"/>
<path d="M351.58 131.37C351.582 131.839 351.445 132.298 351.186 132.689C350.926 133.081 350.557 133.386 350.124 133.567C349.691 133.748 349.214 133.796 348.754 133.706C348.293 133.615 347.87 133.39 347.538 133.059C347.205 132.728 346.979 132.306 346.886 131.846C346.794 131.386 346.84 130.909 347.02 130.475C347.199 130.042 347.502 129.671 347.892 129.41C348.282 129.149 348.741 129.01 349.21 129.01C349.521 129.009 349.829 129.069 350.116 129.187C350.404 129.305 350.665 129.478 350.885 129.698C351.106 129.917 351.28 130.178 351.399 130.465C351.519 130.752 351.58 131.059 351.58 131.37V131.37Z" fill="white"/>
<path opacity="0.5" d="M45.68 197.73C44.0207 197.73 42.3985 197.238 41.0188 196.316C39.6391 195.394 38.5637 194.084 37.9287 192.551C37.2937 191.018 37.1275 189.331 37.4513 187.703C37.775 186.076 38.5741 184.581 39.7474 183.407C40.9208 182.234 42.4157 181.435 44.0432 181.111C45.6707 180.787 47.3577 180.954 48.8908 181.589C50.4238 182.224 51.7342 183.299 52.6561 184.679C53.578 186.059 54.07 187.681 54.07 189.34C54.07 191.565 53.1861 193.699 51.6127 195.273C50.0392 196.846 47.9052 197.73 45.68 197.73V197.73ZM45.68 181.63C44.1552 181.63 42.6645 182.082 41.3966 182.929C40.1287 183.777 39.1405 184.981 38.5569 186.39C37.9734 187.798 37.8207 189.349 38.1182 190.844C38.4157 192.34 39.15 193.714 40.2283 194.792C41.3065 195.87 42.6803 196.604 44.1759 196.902C45.6715 197.199 47.2217 197.047 48.6305 196.463C50.0394 195.88 51.2435 194.891 52.0907 193.623C52.9379 192.356 53.39 190.865 53.39 189.34C53.3874 187.296 52.5742 185.336 51.1289 183.891C49.6836 182.446 47.7241 181.633 45.68 181.63V181.63Z" fill="#BA68C8"/>
<path d="M47.9999 189.34C48.0039 189.809 47.8678 190.269 47.6091 190.661C47.3504 191.052 46.9808 191.358 46.5476 191.538C46.1144 191.719 45.6372 191.766 45.177 191.674C44.7168 191.582 44.2945 191.355 43.9641 191.021C43.6337 190.688 43.4101 190.264 43.322 189.803C43.2339 189.342 43.2852 188.865 43.4694 188.433C43.6536 188.002 43.9622 187.635 44.356 187.38C44.7498 187.124 45.2107 186.992 45.6799 187C46.2963 187.008 46.8848 187.258 47.3188 187.695C47.7527 188.133 47.9974 188.724 47.9999 189.34Z" fill="white"/>
<path d="M386.48 120.51C386.275 120.345 386.124 120.123 386.045 119.872C385.967 119.621 385.965 119.352 386.039 119.099C386.113 118.847 386.261 118.622 386.463 118.454C386.664 118.285 386.912 118.18 387.173 118.152C387.435 118.124 387.699 118.175 387.932 118.297C388.165 118.419 388.357 118.607 388.483 118.838C388.608 119.069 388.663 119.332 388.64 119.594C388.616 119.856 388.515 120.105 388.35 120.31C388.128 120.584 387.807 120.76 387.456 120.797C387.106 120.835 386.754 120.731 386.48 120.51Z" fill="#F0F0F0"/>
<path d="M382.54 124.34C382.46 124.277 382.393 124.198 382.344 124.109C382.294 124.02 382.263 123.922 382.252 123.82C382.241 123.719 382.25 123.616 382.279 123.518C382.308 123.42 382.356 123.329 382.42 123.25C382.549 123.091 382.736 122.989 382.94 122.966C383.144 122.944 383.349 123.003 383.51 123.13C383.667 123.261 383.767 123.448 383.79 123.651C383.812 123.854 383.755 124.058 383.63 124.22C383.567 124.3 383.488 124.367 383.399 124.416C383.31 124.466 383.211 124.497 383.11 124.508C383.009 124.519 382.906 124.51 382.808 124.481C382.71 124.452 382.619 124.404 382.54 124.34V124.34Z" fill="#FAFAFA"/>
<path d="M274.47 330.1C274.621 330.251 274.723 330.444 274.765 330.653C274.806 330.862 274.784 331.079 274.702 331.277C274.621 331.474 274.482 331.642 274.305 331.761C274.127 331.879 273.918 331.942 273.705 331.942C273.492 331.942 273.283 331.879 273.105 331.761C272.928 331.642 272.789 331.474 272.708 331.277C272.626 331.079 272.604 330.862 272.645 330.653C272.687 330.444 272.789 330.251 272.94 330.1C273.144 329.899 273.419 329.786 273.705 329.786C273.991 329.786 274.266 329.899 274.47 330.1Z" fill="#FAFAFA"/>
<path d="M284.45 334.83C284.618 334.989 284.753 335.181 284.846 335.393C284.94 335.605 284.991 335.833 284.995 336.065C285 336.296 284.959 336.526 284.874 336.742C284.788 336.957 284.662 337.154 284.5 337.32C284.259 337.571 283.949 337.745 283.609 337.819C283.269 337.894 282.914 337.866 282.59 337.739C282.266 337.612 281.987 337.392 281.788 337.107C281.589 336.821 281.479 336.483 281.472 336.135C281.465 335.787 281.561 335.445 281.749 335.152C281.936 334.859 282.206 334.628 282.525 334.488C282.844 334.348 283.197 334.306 283.539 334.367C283.882 334.428 284.199 334.589 284.45 334.83V334.83Z" fill="#FAFAFA"/>
<g opacity="0.5">
<path opacity="0.5" d="M314.35 205.42C314.548 205.341 314.765 205.322 314.974 205.366C315.183 205.411 315.373 205.516 315.523 205.668C315.672 205.821 315.772 206.014 315.812 206.223C315.851 206.433 315.828 206.65 315.744 206.846C315.661 207.042 315.521 207.209 315.342 207.326C315.164 207.443 314.955 207.505 314.742 207.503C314.528 207.501 314.32 207.437 314.144 207.317C313.967 207.197 313.83 207.028 313.75 206.83C313.644 206.563 313.648 206.266 313.76 206.002C313.873 205.738 314.085 205.529 314.35 205.42Z" fill="#FAFAFA"/>
<path opacity="0.5" d="M322.74 198.24C323.066 198.112 323.422 198.084 323.763 198.159C324.105 198.234 324.417 198.408 324.66 198.66C324.903 198.912 325.065 199.23 325.127 199.574C325.189 199.918 325.148 200.273 325.009 200.594C324.869 200.915 324.638 201.187 324.344 201.376C324.05 201.566 323.706 201.664 323.356 201.658C323.007 201.652 322.666 201.543 322.379 201.344C322.091 201.145 321.869 200.865 321.74 200.54C321.569 200.102 321.579 199.615 321.766 199.184C321.953 198.753 322.303 198.414 322.74 198.24Z" fill="#FAFAFA"/>
</g>
<g opacity="0.5">
<path opacity="0.5" d="M330.08 370.57C330.082 370.92 329.98 371.264 329.787 371.556C329.593 371.848 329.318 372.077 328.994 372.212C328.671 372.348 328.315 372.384 327.971 372.317C327.627 372.25 327.311 372.082 327.062 371.835C326.813 371.588 326.644 371.273 326.575 370.929C326.506 370.585 326.54 370.229 326.674 369.905C326.807 369.581 327.034 369.304 327.326 369.109C327.617 368.914 327.96 368.81 328.31 368.81C328.778 368.81 329.226 368.995 329.558 369.325C329.89 369.655 330.077 370.102 330.08 370.57V370.57Z" fill="#FAFAFA"/>
<path opacity="0.5" d="M324.81 375.39C324.812 375.601 324.751 375.807 324.635 375.983C324.52 376.158 324.354 376.296 324.16 376.377C323.966 376.459 323.752 376.481 323.546 376.44C323.339 376.399 323.149 376.298 323 376.149C322.852 376.001 322.75 375.811 322.71 375.604C322.669 375.398 322.691 375.184 322.773 374.99C322.854 374.796 322.991 374.63 323.167 374.514C323.343 374.399 323.549 374.338 323.76 374.34C323.9 374.333 324.039 374.355 324.17 374.405C324.301 374.456 324.419 374.533 324.518 374.632C324.617 374.731 324.694 374.849 324.745 374.98C324.795 375.11 324.817 375.25 324.81 375.39Z" fill="#FAFAFA"/>
<path opacity="0.5" d="M321.82 368.81C321.828 368.981 321.784 369.15 321.694 369.296C321.605 369.441 321.473 369.556 321.317 369.626C321.16 369.696 320.987 369.716 320.819 369.686C320.65 369.655 320.495 369.574 320.373 369.454C320.252 369.334 320.169 369.18 320.137 369.012C320.104 368.844 320.123 368.67 320.19 368.513C320.258 368.356 320.371 368.223 320.516 368.132C320.66 368.04 320.829 367.994 321 368C321.213 368.007 321.416 368.095 321.568 368.245C321.72 368.395 321.81 368.597 321.82 368.81V368.81Z" fill="#FAFAFA"/>
</g>
<g opacity="0.5">
<path opacity="0.5" d="M63.6799 365C63.6799 365.348 63.5767 365.688 63.3833 365.978C63.1899 366.267 62.915 366.493 62.5934 366.626C62.2718 366.759 61.918 366.794 61.5766 366.726C61.2351 366.658 60.9215 366.491 60.6754 366.245C60.4293 365.998 60.2616 365.685 60.1937 365.343C60.1258 365.002 60.1607 364.648 60.2939 364.327C60.4271 364.005 60.6527 363.73 60.9421 363.537C61.2315 363.343 61.5718 363.24 61.9199 363.24C62.3867 363.24 62.8344 363.425 63.1644 363.756C63.4945 364.086 63.6799 364.533 63.6799 365Z" fill="#FAFAFA"/>
<path opacity="0.5" d="M58.4099 369.86C58.4001 370.055 58.3332 370.244 58.2176 370.401C58.1019 370.559 57.9426 370.679 57.7592 370.748C57.5758 370.816 57.3765 370.828 57.1859 370.784C56.9954 370.74 56.8219 370.641 56.687 370.5C56.5521 370.358 56.4617 370.18 56.427 369.987C56.3923 369.795 56.4148 369.597 56.4917 369.417C56.5687 369.237 56.6967 369.084 56.8599 368.976C57.0231 368.868 57.2143 368.81 57.4099 368.81C57.5455 368.81 57.6798 368.837 57.8045 368.891C57.9292 368.944 58.0417 369.022 58.1353 369.12C58.2288 369.219 58.3014 369.335 58.3486 369.462C58.3958 369.589 58.4167 369.725 58.4099 369.86Z" fill="#FAFAFA"/>
<path opacity="0.5" d="M55.43 363.28C55.43 363.448 55.3801 363.613 55.2867 363.752C55.1933 363.892 55.0606 364.001 54.9053 364.065C54.7499 364.13 54.579 364.147 54.4142 364.114C54.2493 364.081 54.0978 364 53.9789 363.881C53.8601 363.762 53.7791 363.611 53.7463 363.446C53.7135 363.281 53.7303 363.11 53.7947 362.955C53.859 362.799 53.968 362.667 54.1077 362.573C54.2475 362.48 54.4119 362.43 54.58 362.43C54.8054 362.43 55.0216 362.52 55.181 362.679C55.3404 362.838 55.43 363.055 55.43 363.28V363.28Z" fill="#FAFAFA"/>
</g>
<path d="M192.78 121.77C192.78 121.984 192.717 122.192 192.598 122.37C192.479 122.548 192.311 122.686 192.113 122.768C191.916 122.85 191.699 122.871 191.489 122.829C191.28 122.788 191.087 122.685 190.936 122.534C190.785 122.383 190.682 122.19 190.641 121.981C190.599 121.771 190.62 121.554 190.702 121.357C190.784 121.159 190.922 120.991 191.1 120.872C191.277 120.753 191.486 120.69 191.7 120.69C191.986 120.69 192.261 120.804 192.464 121.006C192.666 121.209 192.78 121.484 192.78 121.77V121.77Z" fill="#FAFAFA"/>
<path d="M197.87 107.6L200.31 110.01L203.67 109.36C203.742 109.347 203.816 109.353 203.883 109.38C203.951 109.406 204.011 109.451 204.054 109.509C204.098 109.568 204.125 109.637 204.131 109.71C204.137 109.782 204.123 109.855 204.09 109.92L202.56 113L204.21 116C204.247 116.064 204.265 116.137 204.262 116.211C204.259 116.284 204.235 116.356 204.193 116.416C204.151 116.477 204.093 116.525 204.025 116.554C203.957 116.583 203.883 116.592 203.81 116.58L200.43 116.07L198.08 118.57C198.03 118.623 197.966 118.662 197.895 118.68C197.824 118.699 197.749 118.697 197.679 118.675C197.609 118.653 197.547 118.612 197.499 118.556C197.452 118.501 197.421 118.433 197.41 118.36L196.85 114.98L193.75 113.53C193.685 113.498 193.629 113.448 193.591 113.386C193.552 113.324 193.532 113.253 193.532 113.18C193.532 113.107 193.552 113.036 193.591 112.974C193.629 112.912 193.685 112.862 193.75 112.83L196.75 111.25L197.18 107.85C197.18 107.77 197.204 107.691 197.25 107.626C197.296 107.56 197.362 107.51 197.437 107.483C197.513 107.455 197.595 107.452 197.672 107.473C197.75 107.494 197.819 107.538 197.87 107.6Z" fill="#FAFAFA"/>
<path d="M113 263.71L113.38 266.34L115.75 267.51C115.801 267.535 115.844 267.573 115.873 267.621C115.903 267.668 115.919 267.724 115.919 267.78C115.919 267.836 115.903 267.892 115.873 267.939C115.844 267.987 115.801 268.025 115.75 268.05L113.38 269.22L112.99 271.85C112.981 271.905 112.957 271.955 112.92 271.997C112.884 272.039 112.837 272.07 112.784 272.086C112.731 272.103 112.675 272.104 112.621 272.091C112.568 272.078 112.519 272.05 112.48 272.01L110.63 270.11L108.02 270.56C107.964 270.571 107.906 270.566 107.853 270.545C107.799 270.524 107.753 270.488 107.72 270.442C107.686 270.396 107.666 270.341 107.663 270.284C107.659 270.227 107.672 270.17 107.7 270.12L108.93 267.78L107.7 265.43C107.68 265.382 107.672 265.329 107.677 265.277C107.683 265.225 107.702 265.175 107.732 265.132C107.761 265.089 107.802 265.055 107.849 265.032C107.896 265.008 107.948 264.998 108 265L110.61 265.45L112.46 263.56C112.498 263.516 112.549 263.483 112.605 263.466C112.661 263.449 112.721 263.448 112.778 263.464C112.834 263.48 112.885 263.511 112.924 263.555C112.964 263.598 112.99 263.652 113 263.71V263.71Z" fill="#FAFAFA"/>
<path d="M348.05 94.43L350.65 93.96L351.74 91.54C351.764 91.4893 351.803 91.4465 351.851 91.4166C351.898 91.3867 351.954 91.3708 352.01 91.3708C352.066 91.3708 352.121 91.3867 352.169 91.4166C352.217 91.4465 352.255 91.4893 352.28 91.54L353.54 93.88L356.17 94.17C356.225 94.1759 356.277 94.197 356.321 94.2308C356.365 94.2647 356.399 94.31 356.418 94.3617C356.438 94.4135 356.443 94.4697 356.433 94.5241C356.422 94.5785 356.397 94.629 356.36 94.67L354.53 96.59L355.07 99.18C355.08 99.2355 355.075 99.2927 355.055 99.3455C355.035 99.3982 355.002 99.4446 354.957 99.4796C354.913 99.5146 354.86 99.5368 354.804 99.5439C354.748 99.5511 354.691 99.5428 354.64 99.52L352.25 98.37L350 99.66C349.951 99.6888 349.895 99.7033 349.839 99.7018C349.782 99.7003 349.728 99.6829 349.681 99.6516C349.633 99.6202 349.596 99.5762 349.573 99.5246C349.55 99.473 349.542 99.416 349.55 99.36L349.91 96.73L347.91 94.95C347.868 94.9131 347.837 94.865 347.82 94.8114C347.804 94.7577 347.803 94.7006 347.818 94.6464C347.833 94.5923 347.862 94.5433 347.903 94.5051C347.944 94.4668 347.995 94.4408 348.05 94.43V94.43Z" fill="#FAFAFA"/>
<path d="M189.87 373.3C190.097 373.433 190.28 373.629 190.395 373.866C190.51 374.102 190.553 374.367 190.517 374.628C190.482 374.889 190.37 375.133 190.196 375.33C190.022 375.527 189.793 375.668 189.539 375.735C189.285 375.802 189.016 375.792 188.767 375.707C188.519 375.621 188.301 375.464 188.142 375.255C187.982 375.045 187.888 374.794 187.872 374.531C187.856 374.269 187.918 374.007 188.05 373.78C188.137 373.628 188.253 373.495 188.392 373.388C188.531 373.281 188.69 373.203 188.859 373.159C189.029 373.114 189.205 373.103 189.379 373.128C189.552 373.152 189.719 373.211 189.87 373.3V373.3Z" fill="#F0F0F0"/>
<path d="M193.17 368.91C193.348 369.013 193.479 369.182 193.533 369.38C193.588 369.579 193.561 369.791 193.46 369.97C193.409 370.058 193.341 370.136 193.261 370.198C193.18 370.26 193.087 370.306 192.989 370.332C192.89 370.358 192.787 370.364 192.686 370.35C192.585 370.336 192.488 370.302 192.4 370.25C192.312 370.199 192.235 370.132 192.173 370.052C192.111 369.971 192.065 369.879 192.039 369.782C192.012 369.684 192.006 369.581 192.019 369.481C192.032 369.38 192.064 369.283 192.115 369.195C192.166 369.107 192.233 369.03 192.313 368.968C192.394 368.906 192.485 368.86 192.583 368.834C192.681 368.808 192.784 368.801 192.884 368.814C192.985 368.827 193.082 368.859 193.17 368.91Z" fill="#FAFAFA"/>
<path d="M231.85 393.17L229.34 394.04L228.64 396.59C228.625 396.644 228.595 396.693 228.554 396.731C228.513 396.769 228.462 396.795 228.406 396.806C228.351 396.816 228.294 396.811 228.242 396.79C228.189 396.77 228.144 396.735 228.11 396.69L226.51 394.58L223.86 394.7C223.803 394.704 223.745 394.691 223.695 394.664C223.645 394.636 223.603 394.594 223.576 394.544C223.548 394.493 223.536 394.436 223.54 394.378C223.545 394.321 223.565 394.266 223.6 394.22L225.11 392.05L224.18 389.57C224.158 389.517 224.152 389.459 224.162 389.402C224.172 389.346 224.198 389.294 224.237 389.252C224.276 389.21 224.326 389.179 224.382 389.165C224.437 389.151 224.496 389.152 224.55 389.17L227.09 389.94L229.16 388.29C229.204 388.254 229.257 388.231 229.313 388.224C229.369 388.217 229.426 388.227 229.478 388.251C229.529 388.275 229.572 388.313 229.603 388.36C229.633 388.408 229.65 388.463 229.65 388.52V391.17L231.86 392.63C231.91 392.655 231.952 392.695 231.982 392.743C232.011 392.791 232.025 392.847 232.024 392.903C232.023 392.96 232.006 393.014 231.976 393.062C231.945 393.109 231.901 393.146 231.85 393.17V393.17Z" fill="#FAFAFA"/>
<path d="M403.86 205.87C404.186 205.742 404.542 205.714 404.884 205.789C405.225 205.864 405.537 206.038 405.78 206.29C406.023 206.542 406.185 206.86 406.247 207.204C406.31 207.548 406.268 207.903 406.129 208.224C405.989 208.545 405.758 208.817 405.464 209.006C405.17 209.196 404.826 209.294 404.476 209.288C404.127 209.282 403.787 209.173 403.499 208.974C403.211 208.775 402.989 208.495 402.86 208.17C402.774 207.953 402.732 207.722 402.736 207.489C402.74 207.256 402.789 207.026 402.882 206.812C402.975 206.599 403.109 206.405 403.277 206.244C403.445 206.082 403.643 205.955 403.86 205.87V205.87Z" fill="#FAFAFA"/>
<path d="M114.38 389.12C113.948 388.685 113.706 388.098 113.706 387.485C113.706 386.872 113.948 386.285 114.38 385.85V385.85C114.815 385.418 115.402 385.176 116.015 385.176C116.628 385.176 117.215 385.418 117.65 385.85C117.65 385.85 163.79 433.43 162.88 434.34C161.97 435.25 114.38 389.12 114.38 389.12Z" fill="url(#paint1_linear)"/>
<path d="M115.25 386.71C115.483 386.478 115.799 386.348 116.129 386.349C116.458 386.35 116.773 386.482 117.005 386.715C117.237 386.948 117.367 387.264 117.366 387.594C117.365 387.923 117.233 388.238 117 388.47C116.884 388.585 116.747 388.676 116.597 388.738C116.446 388.8 116.284 388.831 116.121 388.831C115.959 388.831 115.797 388.798 115.647 388.735C115.496 388.672 115.36 388.581 115.245 388.465C115.13 388.349 115.039 388.212 114.977 388.062C114.915 387.911 114.884 387.749 114.884 387.586C114.885 387.424 114.917 387.262 114.98 387.112C115.043 386.961 115.134 386.825 115.25 386.71V386.71Z" fill="#FAFAFA"/>
<path d="M272.69 81C272.863 80.8261 273.084 80.7075 273.325 80.6592C273.566 80.611 273.815 80.6352 274.042 80.7289C274.269 80.8226 274.463 80.9815 274.599 81.1856C274.736 81.3896 274.809 81.6295 274.809 81.875C274.809 82.1205 274.736 82.3604 274.599 82.5644C274.463 82.7685 274.269 82.9274 274.042 83.0211C273.815 83.1148 273.566 83.1391 273.325 83.0908C273.084 83.0425 272.863 82.9239 272.69 82.75C272.459 82.5176 272.329 82.203 272.329 81.875C272.329 81.547 272.459 81.2324 272.69 81Z" fill="#FAFAFA"/>
<defs>
<linearGradient id="paint0_linear" x1="394.145" y1="290.144" x2="370.914" y2="240.301" gradientUnits="userSpaceOnUse">
<stop stop-color="#455A64" stop-opacity="0"/>
<stop offset="0.3" stop-color="#3D7F7E" stop-opacity="0.28"/>
<stop offset="0.99" stop-color="#27DCBE" stop-opacity="0.99"/>
<stop offset="1" stop-color="#BA68C8"/>
</linearGradient>
<linearGradient id="paint1_linear" x1="116.05" y1="387.52" x2="163.02" y2="434.49" gradientUnits="userSpaceOnUse">
<stop stop-color="#BA68C8"/>
<stop offset="0.8" stop-color="#455A64"/>
<stop offset="1" stop-color="#455A64" stop-opacity="0"/>
</linearGradient>
</defs>
</svg>
