<svg width="54" height="36" viewBox="0 0 54 36" fill="none" xmlns="http://www.w3.org/2000/svg">
<path fill-rule="evenodd" clip-rule="evenodd" d="M27 6C20.2057 6 14.6962 11.5082 14.6962 18.3038C14.6962 23.7398 18.2216 28.3517 23.1103 29.9787C23.7251 30.0926 23.9509 29.7117 23.9509 29.3868C23.9509 29.0936 23.9395 28.1242 23.9342 27.0961C20.5113 27.8404 19.789 25.6444 19.789 25.6444C19.2293 24.2224 18.4229 23.8441 18.4229 23.8441C17.3066 23.0805 18.5071 23.0962 18.5071 23.0962C19.7425 23.1829 20.3931 24.3642 20.3931 24.3642C21.4905 26.245 23.2714 25.7013 23.9735 25.3868C24.0842 24.5918 24.4028 24.0488 24.7547 23.7416C22.0218 23.4307 19.1491 22.3755 19.1491 17.661C19.1491 16.3179 19.6297 15.2203 20.4168 14.3587C20.289 14.0485 19.8679 12.7972 20.5362 11.1025C20.5362 11.1025 21.5694 10.7719 23.9204 12.3638C24.9018 12.0912 25.9544 11.9545 27 11.9496C28.0456 11.9542 29.099 12.0912 30.0823 12.3638C32.4306 10.7719 33.4624 11.1025 33.4624 11.1025C34.1321 12.7972 33.711 14.0485 33.5832 14.3587C34.3722 15.2203 34.8493 16.3179 34.8493 17.661C34.8493 22.3869 31.971 23.4272 29.2312 23.7318C29.6726 24.1136 30.0657 24.8624 30.0657 26.0103C30.0657 27.6566 30.0517 28.9816 30.0517 29.3868C30.0517 29.7144 30.273 30.0981 30.8967 29.9772C35.7829 28.3485 39.3038 23.7381 39.3038 18.3039C39.3038 11.5082 33.7951 6 27 6" fill="white"/>
<path d="M19.3563 23.6654C19.3291 23.7267 19.233 23.7451 19.1454 23.7029C19.0559 23.6628 19.0061 23.5794 19.0349 23.5181C19.0615 23.4553 19.1576 23.4378 19.2469 23.4798C19.3361 23.52 19.387 23.6041 19.3563 23.6654ZM19.8547 24.2213C19.796 24.2757 19.6811 24.2504 19.6035 24.1645C19.5228 24.0787 19.5079 23.9638 19.5674 23.9088C19.628 23.8544 19.7392 23.8799 19.8197 23.9656C19.9003 24.0525 19.916 24.1663 19.8547 24.2213ZM20.3398 24.9299C20.2644 24.9824 20.1409 24.9333 20.0647 24.8239C19.9893 24.7143 19.9893 24.5831 20.0664 24.5305C20.1427 24.478 20.2643 24.5253 20.3415 24.6338C20.4167 24.745 20.4167 24.8763 20.3398 24.9299ZM21.0043 25.6145C20.9369 25.6889 20.7933 25.6689 20.6881 25.5675C20.5806 25.4683 20.5507 25.3274 20.6181 25.2531C20.6865 25.1786 20.8309 25.1995 20.9369 25.3001C21.0437 25.3992 21.076 25.541 21.0043 25.6145ZM21.9212 26.012C21.8912 26.1085 21.7532 26.152 21.6137 26.1111C21.4746 26.0689 21.3835 25.9563 21.4116 25.8588C21.4406 25.7616 21.5796 25.7162 21.7199 25.76C21.8589 25.802 21.9502 25.9141 21.9212 26.0121V26.012ZM22.9282 26.0857C22.9317 26.1872 22.8135 26.2713 22.6672 26.2731C22.5201 26.2766 22.4009 26.1943 22.3993 26.0944C22.3993 25.992 22.515 25.9089 22.6619 25.9061C22.8082 25.9033 22.9282 25.985 22.9282 26.0857ZM23.8651 25.9263C23.8826 26.0251 23.781 26.1268 23.6357 26.1539C23.4929 26.1801 23.3607 26.1188 23.3425 26.0208C23.3248 25.9194 23.4281 25.8177 23.5709 25.7914C23.7164 25.7662 23.8466 25.8257 23.8651 25.9263Z" fill="white"/>
</svg>
