<svg width="27" height="27" viewBox="0 0 27 27" fill="none" xmlns="http://www.w3.org/2000/svg">
<path fill-rule="evenodd" clip-rule="evenodd" d="M14 1C7.20568 1 1.69617 6.50825 1.69617 13.3038C1.69617 18.7398 5.22158 23.3517 10.1103 24.9787C10.7251 25.0926 10.9509 24.7117 10.9509 24.3868C10.9509 24.0936 10.9395 23.1242 10.9342 22.0961C7.51132 22.8404 6.78904 20.6444 6.78904 20.6444C6.22934 19.2224 5.42291 18.8441 5.42291 18.8441C4.30657 18.0805 5.50706 18.0962 5.50706 18.0962C6.74255 18.1829 7.3931 19.3642 7.3931 19.3642C8.49049 21.245 10.2714 20.7013 10.9735 20.3868C11.0842 19.5918 11.4028 19.0488 11.7547 18.7416C9.02184 18.4307 6.14906 17.3755 6.14906 12.661C6.14906 11.3179 6.62969 10.2203 7.41678 9.35868C7.28902 9.04854 6.86787 7.79716 7.53615 6.10247C7.53615 6.10247 8.56939 5.77193 10.9204 7.36383C11.9018 7.09123 12.9544 6.95446 14 6.94961C15.0456 6.95423 16.099 7.09117 17.0823 7.36383C19.4306 5.77193 20.4624 6.10247 20.4624 6.10247C21.1321 7.79716 20.711 9.04854 20.5832 9.35868C21.3722 10.2203 21.8493 11.3179 21.8493 12.661C21.8493 17.3869 18.971 18.4272 16.2312 18.7318C16.6726 19.1136 17.0657 19.8624 17.0657 21.0103C17.0657 22.6566 17.0517 23.9816 17.0517 24.3868C17.0517 24.7144 17.273 25.0981 17.8967 24.9772C22.7829 23.3485 26.3038 18.7381 26.3038 13.3039C26.3038 6.50819 20.7951 1 14 1" fill="white"/>
<path d="M6.35629 18.6654C6.32914 18.7267 6.23298 18.7451 6.14542 18.7029C6.0559 18.6628 6.00606 18.5794 6.03494 18.5181C6.0615 18.4553 6.15761 18.4378 6.2469 18.4798C6.33613 18.52 6.38701 18.6041 6.35629 18.6654ZM6.85471 19.2213C6.79603 19.2757 6.6811 19.2504 6.60348 19.1645C6.52279 19.0787 6.50789 18.9638 6.56744 18.9088C6.62796 18.8544 6.7392 18.8799 6.81965 18.9656C6.90033 19.0525 6.91604 19.1663 6.85471 19.2213ZM7.33979 19.9299C7.26442 19.9824 7.14094 19.9333 7.06471 19.8239C6.98934 19.7143 6.98934 19.5831 7.06644 19.5305C7.14267 19.478 7.26431 19.5253 7.34152 19.6338C7.41672 19.745 7.41672 19.8763 7.33979 19.9299ZM8.00432 20.6145C7.93692 20.6889 7.79328 20.6689 7.68811 20.5675C7.58057 20.4683 7.55065 20.3274 7.61805 20.2531C7.68649 20.1786 7.83094 20.1995 7.93686 20.3001C8.04371 20.3992 8.07605 20.541 8.00432 20.6145ZM8.92123 21.012C8.8912 21.1085 8.75317 21.152 8.61375 21.1111C8.47456 21.0689 8.38354 20.9563 8.4116 20.8588C8.4406 20.7616 8.57956 20.7162 8.7199 20.76C8.85886 20.802 8.95017 20.9141 8.92123 21.0121V21.012ZM9.92819 21.0857C9.93165 21.1872 9.81349 21.2713 9.66719 21.2731C9.52009 21.2766 9.40094 21.1943 9.39927 21.0944C9.39927 20.992 9.51501 20.9089 9.66188 20.9061C9.80817 20.9033 9.92819 20.985 9.92819 21.0857ZM10.8651 20.9263C10.8826 21.0251 10.781 21.1268 10.6357 21.1539C10.4929 21.1801 10.3607 21.1188 10.3425 21.0208C10.3248 20.9194 10.4281 20.8177 10.5709 20.7914C10.7164 20.7662 10.8466 20.8257 10.8651 20.9263Z" fill="white"/>
</svg>
