<svg width="35" height="35" viewBox="0 0 35 35" fill="none" xmlns="http://www.w3.org/2000/svg">
<path d="M16.7708 2.91666C11.9459 2.91666 8.02075 8.21771 8.02075 14.7328C8.02075 18.2576 9.17429 21.4185 10.9943 23.582C10.9593 23.7373 10.9374 23.897 10.9374 24.0625C10.9374 25.2707 11.9167 26.25 13.1249 26.25C14.3331 26.25 15.3124 25.2707 15.3124 24.0625C15.3124 22.8543 14.3331 21.875 13.1249 21.875C12.8952 21.875 12.6787 21.9202 12.4709 21.9858C11.0876 20.2205 10.2083 17.6276 10.2083 14.7328C10.2083 9.42375 13.1519 5.10416 16.7708 5.10416C19.5686 5.10416 21.9559 7.69052 22.8987 11.3152C23.7168 11.5675 24.5298 11.8854 25.3268 12.269C24.4846 6.93291 20.97 2.91666 16.7708 2.91666Z" fill="#7E57C2"/>
<path d="M25.8905 14.6446C23.0125 12.9004 19.7845 12.1348 17.0078 12.487C16.6068 11.9904 16.0001 11.6667 15.3125 11.6667C14.1043 11.6667 13.125 12.6459 13.125 13.8542C13.125 15.0624 14.1043 16.0417 15.3125 16.0417C16.24 16.0417 17.0282 15.462 17.3461 14.6475C19.6197 14.3711 22.3132 15.0347 24.7567 16.5164C29.4255 19.3462 31.8077 24.2229 30.0665 27.389C29.4634 28.4856 28.3996 29.2644 26.9908 29.6421C25.324 30.0876 23.3399 29.9294 21.3566 29.2571C20.7448 29.82 20.0813 30.3494 19.3696 30.8379C21.2304 31.6524 23.1583 32.0804 24.9616 32.0804C25.8657 32.0804 26.7393 31.9732 27.5567 31.7545C29.5553 31.22 31.0866 30.0745 31.9834 28.4426C34.2825 24.2637 31.5489 18.0739 25.8905 14.6446Z" fill="#7E57C2"/>
<path d="M25.5208 21.14C25.5208 19.9354 24.5416 18.9583 23.3333 18.9583C22.1251 18.9583 21.1458 19.9354 21.1458 21.14C21.1458 21.6278 21.3121 22.0741 21.5833 22.4372C20.6507 24.4803 18.8533 26.4965 16.4339 27.9628C13.6157 29.672 10.4657 30.2976 8.00843 29.6414C6.59968 29.2636 5.53582 28.4849 4.9328 27.3882C3.69176 25.1322 4.55291 22.0099 6.83593 19.3761C6.60041 18.542 6.42613 17.6699 6.32113 16.7694C2.62426 20.2672 1.13749 25.0257 3.01655 28.4426C3.91343 30.0745 5.44468 31.22 7.44332 31.7545C8.26072 31.9732 9.13353 32.0804 10.0384 32.0804C12.4782 32.0804 15.1477 31.3017 17.5678 29.8346C20.3649 28.1393 22.4408 25.768 23.5535 23.2998C24.6568 23.1882 25.5208 22.2695 25.5208 21.14Z" fill="#7E57C2"/>
</svg>
