<svg width="45" height="45" viewBox="0 0 45 45" fill="none" xmlns="http://www.w3.org/2000/svg">
<path d="M16.9922 6.5625L16.875 14.0625H4.6875C4.6875 14.0625 4.6875 11.6559 4.6875 9.84375C4.6875 8.03156 6.15656 6.5625 7.96875 6.5625C9.78094 6.5625 16.9922 6.5625 16.9922 6.5625Z" fill="#37474F"/>
<path d="M28.1334 5.27531L29.8678 2.35313C30.1322 1.90781 29.985 1.33219 29.5406 1.06781C29.0953 0.802501 28.5206 0.950626 28.2553 1.395L26.4319 4.46625C25.2084 4.00875 23.8856 3.75 22.5 3.75C21.1144 3.75 19.7916 4.00875 18.5672 4.46719L16.7438 1.39594C16.4794 0.951564 15.9047 0.803439 15.4584 1.06875C15.0131 1.33313 14.8669 1.90875 15.1312 2.35406L16.8656 5.27625C13.7709 7.07625 11.6081 10.3031 11.2969 14.0634H33.7031C33.3919 10.3022 31.2291 7.07531 28.1334 5.27531Z" fill="#00E676"/>
<path d="M17.8125 10.3125C18.3303 10.3125 18.75 9.89277 18.75 9.375C18.75 8.85723 18.3303 8.4375 17.8125 8.4375C17.2947 8.4375 16.875 8.85723 16.875 9.375C16.875 9.89277 17.2947 10.3125 17.8125 10.3125Z" fill="white"/>
<path d="M27.1875 10.3125C27.7053 10.3125 28.125 9.89277 28.125 9.375C28.125 8.85723 27.7053 8.4375 27.1875 8.4375C26.6697 8.4375 26.25 8.85723 26.25 9.375C26.25 9.89277 26.6697 10.3125 27.1875 10.3125Z" fill="white"/>
<path d="M37.0312 13.125C36.5681 13.125 8.775 13.125 7.96875 13.125C6.15656 13.125 4.6875 11.6559 4.6875 9.84375C4.6875 9.84469 4.6875 33.3441 4.6875 35.1562C4.6875 36.9684 6.15656 38.4375 7.96875 38.4375C8.775 38.4375 40.3125 38.4375 40.3125 38.4375C40.3125 38.4375 40.3125 18.2184 40.3125 16.4062C40.3125 14.5941 38.8434 13.125 37.0312 13.125Z" fill="#448AFF"/>
<path d="M37.0312 19.6875C36.7106 19.6875 36.2147 19.6875 35.625 19.6875V43.9453C36.2147 43.9453 36.7106 43.9453 37.0312 43.9453C38.8434 43.9453 40.3125 42.4762 40.3125 40.6641C40.3125 38.8519 40.3125 16.4062 40.3125 16.4062C40.3125 18.2184 38.8434 19.6875 37.0312 19.6875Z" fill="#37474F"/>
<path d="M31.6574 41.3072L24.6787 26.4769C25.6265 25.7953 26.2499 24.6909 26.2499 23.4375C26.2499 21.6956 25.0499 20.2397 23.4374 19.8206V17.8125C23.4374 17.295 23.0174 16.875 22.4999 16.875C21.9824 16.875 21.5624 17.295 21.5624 17.8125V19.8206C19.9499 20.2397 18.7499 21.6956 18.7499 23.4375C18.7499 24.6909 19.3734 25.7953 20.3212 26.4769L13.3462 41.2997C12.9487 42.1444 13.1578 43.1981 13.9274 43.7259C14.909 44.3991 16.2121 44.0156 16.6968 42.9853L21.0496 33.7359C21.6271 32.5088 23.3737 32.5088 23.9512 33.7359L28.304 42.9853C28.6228 43.665 29.2968 44.0625 30.0009 44.0625C30.3862 44.0625 30.7809 43.9425 31.1287 43.6856C31.8581 43.1475 32.0437 42.1275 31.6574 41.3072ZM22.4999 21.5625C23.534 21.5625 24.3749 22.4034 24.3749 23.4375C24.3749 24.4716 23.534 25.3125 22.4999 25.3125C21.4659 25.3125 20.6249 24.4716 20.6249 23.4375C20.6249 22.4034 21.4659 21.5625 22.4999 21.5625Z" fill="#37474F"/>
</svg>
