<svg width="45" height="45" viewBox="0 0 45 45" fill="none" xmlns="http://www.w3.org/2000/svg">
<path d="M41.25 35.625L6.1875 41.1563L1.875 12.9375L36.75 7.59375L41.25 35.625Z" fill="#03A9F4"/>
<path d="M36.75 7.59375L41.25 35.625L6.1875 41.1563L5.8125 38.4375L36.75 7.59375Z" fill="#039BE5"/>
<path d="M1.875 12.9375L4.125 27.4687L20.8125 10.0312L1.875 12.9375Z" fill="#29B6F6"/>
<path d="M7.78125 39L4.03125 14.4375L35.25 9.65625L39.1875 34.0312L7.78125 39ZM6.1875 16.0313L9.375 36.8438L37.0313 32.4375L33.75 11.7187L6.1875 16.0313Z" fill="white"/>
<path d="M10.4062 25.3125L10.7812 28.125L33.75 24.4688L33.2812 21.6562L10.4062 25.3125Z" fill="white"/>
<path d="M15.5625 32.1562L12.6562 35.625L13.0312 31.125C13.0312 31.0312 13.0312 30.9375 13.125 30.8438L18 18.9375C18.1875 18.4687 18.75 18.1875 19.2188 18.4687L20.0625 18.8437C20.5312 19.0312 20.8125 19.5937 20.5312 20.0625L15.75 31.875C15.6562 31.9687 15.6563 32.0625 15.5625 32.1562ZM28.7813 27.375L20.0625 17.1562C19.6875 16.7812 19.7812 16.125 20.1562 15.8437L20.9062 15.2812C21.2812 14.9062 21.9375 15 22.2188 15.375L30.9375 25.5937L28.7813 27.375ZM31.5 26.25C31.5 26.25 33.75 26.9062 33.75 29.5312C33.75 31.2187 33.2812 31.875 33.2812 31.875C33.2812 31.875 32.9063 30.75 31.125 30.0937C28.6875 29.25 28.7813 27.375 28.7813 27.375L30.8438 26.9062L31.5 26.25Z" fill="white"/>
<path d="M19.125 23.4375L18 26.1562L19.7812 24.4688L20.1562 23.4375H19.125Z" fill="#03A9F4"/>
<path d="M18.2813 28.125L19.7813 24.4688L18 26.1562L17.25 28.125H18.2813Z" fill="#039BE5"/>
<path d="M14.25 28.125L16.125 23.4375H15.0938L13.2188 28.125H14.25Z" fill="#03A9F4"/>
<path d="M31.7813 25.125L28.6875 21.5625H27.4687L30.75 25.3125L30.9375 25.5937L28.7813 27.375L27.5625 25.9688L24.5625 22.5H23.3438L26.1562 25.7812L28.0312 28.0312L28.6875 28.6875L29.3437 28.125L31.5 26.25L32.25 25.6875L31.7813 25.125Z" fill="#039BE5"/>
<path d="M15.9375 19.5938V20.625L20.625 22.5938V21.5625L15.9375 19.5938Z" fill="#03A9F4"/>
<path d="M16.875 31.5L13.9687 30.2812L13.2188 31.0312L16.875 32.5313V31.5Z" fill="#039BE5"/>
<path d="M12.1875 29.5312V30.5625L13.2188 31.0312L13.9687 30.2812L12.1875 29.5312Z" fill="#03A9F4"/>
<path d="M35.5313 11.4375V11.5312L36.1875 15.4687L37.4063 12.0937C37.4063 12 37.5 11.9063 37.5 11.8125L37.125 9.65625C36.375 10.125 35.7188 10.875 35.5313 11.4375ZM31.7813 30.375C31.5938 30.2813 31.4063 30.1875 31.125 30.0937C30.6562 29.9062 30.375 29.8125 30.0937 29.625L28.875 33.75L30.9375 33.4688L31.7813 30.375ZM28.3125 35.7187L27.8438 37.7812L29.8125 37.4063L30.375 35.4375L28.3125 35.7187ZM32.625 20.4375V20.5312L32.25 21.8437L33.2812 21.6563L33.6563 23.7187L34.4062 21L34.875 19.5L34.2187 15.375L33.1875 18.6562L32.625 20.4375Z" fill="#0277BD"/>
<path d="M34.2187 15.375L34.875 19.5L36.0937 15.4687L35.4375 11.5312C34.9687 12.8437 34.5 14.1562 34.4062 14.3438L34.2187 15.375ZM28.875 33.75L28.3125 35.7187L30.375 35.4375L30.9375 33.4688L28.875 33.75ZM33.6563 23.7187L33.2812 21.6563L32.25 21.8437L31.4062 24.8437L33.375 24.5625L33.6563 23.7187ZM31.5 26.25L30.9375 26.5312L30.0937 29.625C30.375 29.8125 30.75 30 31.125 30.0937C31.4063 30.1875 31.5938 30.2813 31.7813 30.375L32.7188 27C32.1563 26.4375 31.5 26.25 31.5 26.25Z" fill="#90A4AE"/>
<path d="M32.7188 27L33.375 24.4688L31.3125 24.75L30.75 26.8125L31.5 26.1562C31.5 26.25 32.1563 26.4375 32.7188 27Z" fill="#0277BD"/>
<path d="M31.5 26.25L30.75 26.9063L30 29.625C30.2813 29.8125 30.6562 30 31.0312 30.0937C31.3125 30.1875 31.5 30.2813 31.6875 30.375L32.625 27C32.1562 26.4375 31.5 26.25 31.5 26.25Z" fill="#90A4AE"/>
<path d="M33.75 4.21875C28.125 4.21875 24.375 5.625 24.375 5.625V6.09375C32.4375 6.09375 33.4687 9.09375 33.75 9.84375V4.21875Z" fill="#78909C"/>
<path d="M41.25 5.90625C41.0625 6.28125 40.875 6.5625 40.3125 6.5625C39.2812 6.5625 38.4375 5.0625 38.4375 5.0625C36.8437 4.03125 33.75 2.8125 30.9375 2.8125C25.3125 2.8125 23.4375 4.21875 23.4375 4.21875V4.6875C27.375 4.6875 28.875 5.0625 30.2812 6.09375C32.5312 7.78125 32.3437 11.625 31.5 14.625L29.8125 19.6875L32.5313 20.5312L34.5 14.3438C34.5937 14.25 35.0625 12.8437 35.5313 11.4375C35.8125 10.6875 36.5625 9.75 37.5 9.46875C38.0625 9.28125 38.8125 9.1875 39.2813 9.5625C39.75 9.9375 39.75 10.2188 39.6562 10.5938L41.5312 11.1562L43.125 6.5625L41.25 5.90625Z" fill="#D7DEE2"/>
<path d="M40.3125 6.5625C39.2812 6.5625 38.4375 5.0625 38.4375 5.0625L37.6875 7.40625C37.4062 8.4375 36.2812 8.90625 35.3437 8.625L31.3125 7.3125C31.7812 8.15625 31.9687 9.09375 32.0625 10.2187L35.625 11.3438C35.9062 10.7813 36.375 10.125 37.0312 9.75C37.2187 9.65625 37.4062 9.5625 37.5937 9.46875C38.1562 9.28125 38.9062 9.1875 39.375 9.5625C39.8437 9.9375 39.8437 10.2188 39.75 10.5938L41.25 5.90625C41.0625 6.28125 40.875 6.5625 40.3125 6.5625Z" fill="#90A4AE"/>
<path d="M29.8124 19.6875L21.6562 38.7187C21.1874 39.9375 21.8437 41.4375 23.1562 41.8125L23.9999 42.0938C25.3124 42.4688 26.6249 41.7188 26.9062 40.7812L32.5312 20.5312L29.8124 19.6875Z" fill="#424242"/>
</svg>
