<svg width="45" height="45" viewBox="0 0 45 45" fill="none" xmlns="http://www.w3.org/2000/svg">
<path d="M22.3347 44.9995C10.3448 44.9168 -0.080345 34.9661 0.00046671 22.3239C0.078161 10.1594 10.1868 -0.0824357 22.6951 0.000500194C34.8516 0.0812788 45.1078 10.1719 44.9991 22.5341C45.0999 34.7842 34.7931 45.086 22.3347 44.9995ZM22.3347 44.9995C10.3448 44.9168 -0.080345 34.9661 0.00046671 22.3239C0.078161 10.1594 10.1868 -0.0824357 22.6951 0.000500194C34.8516 0.0812788 45.1078 10.1719 44.9991 22.5341C45.0999 34.7842 34.7931 45.086 22.3347 44.9995Z" fill="white"/>
<path d="M22.3567 42.0112C11.9588 41.9395 2.9186 33.3103 2.98869 22.3473C3.05614 11.7982 11.8222 2.91651 22.6693 2.98872C33.2112 3.05877 42.1052 11.8094 42.011 22.5298C42.0983 33.1528 33.1607 42.0863 22.3567 42.0112ZM22.3567 42.0112C11.9588 41.9395 2.9186 33.3103 2.98869 22.3473C3.05614 11.7982 11.8222 2.91651 22.6693 2.98872C33.2112 3.05877 42.1052 11.8094 42.011 22.5298C42.0983 33.1528 33.1607 42.0863 22.3567 42.0112Z" fill="#49A32B"/>
<path d="M29.7646 22.4923C29.7145 23.4222 28.9021 24.1944 28.1015 24.0596C28.0977 24.0596 28.0936 24.0596 28.0895 24.0596C27.2027 24.0608 26.4829 23.3427 26.482 22.4559C26.5121 21.5667 27.2496 20.8658 28.1391 20.8809C29.0259 20.8852 29.8124 21.6347 29.7646 22.4923ZM15.5041 31.5035C15.8385 31.5134 16.1731 31.5062 16.5587 31.5062V33.9295C14.162 34.3347 12.1878 33.6542 11.7033 31.6283C11.5374 30.8834 11.4354 30.1255 11.3981 29.3632C11.3466 28.556 11.4357 27.7398 11.3742 26.9341C11.2037 24.7172 10.9165 23.9603 8.78906 23.8555V21.0963C8.94154 21.0607 9.09616 21.0343 9.25175 21.0169C10.4182 20.9594 10.9098 20.6018 11.1707 19.4529C11.2894 18.8073 11.3598 18.1539 11.3806 17.4978C11.473 16.2292 11.4402 14.94 11.6516 13.6919C11.957 11.8871 13.0775 11.0104 14.9282 10.9122C15.4548 10.884 15.9831 10.9079 16.5798 10.9079V13.3848C16.3342 13.4023 16.1092 13.438 15.8857 13.4313C14.3774 13.3851 14.2994 13.8987 14.1893 15.1472C14.1206 15.9302 14.2154 16.7266 14.162 17.5121C14.1062 18.2939 14.0016 19.0716 13.8489 19.8404C13.6313 20.9546 12.9463 21.7833 11.997 22.4865C13.8398 23.6858 14.0495 25.5492 14.1692 27.4413C14.2336 28.4581 14.2041 29.4821 14.3073 30.4939C14.3877 31.2793 14.6932 31.4796 15.5041 31.5035ZM17.0573 20.8809C17.0669 20.8809 17.0762 20.8809 17.0858 20.8809C17.9669 20.8955 18.6697 21.6215 18.6551 22.5028C18.6551 22.5318 18.6541 22.5605 18.6524 22.5892C18.6029 23.4505 17.8647 24.1082 17.0035 24.0587C16.9688 24.0594 16.9343 24.0587 16.8996 24.057C16.0226 24.0134 15.3469 23.2671 15.3904 22.3901C15.434 21.5131 16.1803 20.8373 17.0573 20.8809ZM22.5481 20.8809C23.5117 20.8735 24.1518 21.498 24.1568 22.4506C24.1621 23.4289 23.5553 24.0548 22.5978 24.0589C21.6241 24.0632 20.9831 23.4473 20.9778 22.5004C20.975 22.4521 20.9742 22.4037 20.9757 22.3554C21.0027 21.514 21.7067 20.8539 22.5481 20.8809ZM34.0441 19.674C34.3005 20.6315 34.7995 20.968 35.8075 21.014C35.9727 21.0217 36.1371 21.0497 36.3635 21.0748V23.8332C36.241 23.8734 36.1153 23.9036 35.9877 23.9232C34.637 24.0072 34.0214 24.5613 33.8849 25.9156C33.7978 26.7802 33.805 27.6544 33.7452 28.5221C33.72 29.4747 33.6334 30.4247 33.4857 31.3662C33.141 33.0718 32.0761 33.9228 30.3165 34.0267C29.7502 34.0602 29.1798 34.0319 28.5692 34.0319V31.5665C28.8978 31.5462 29.1879 31.5181 29.4788 31.5112C30.53 31.4861 30.9018 31.1471 30.9532 30.103C31.0102 28.956 31.0351 27.8076 31.0863 26.6603C31.1608 25.002 31.6148 23.5206 33.1597 22.4863C32.2757 21.8561 31.566 21.0927 31.3822 20.0635C31.1598 18.8159 31.088 17.5409 30.9683 16.2758C30.9092 15.6434 30.9121 15.0055 30.8503 14.3736C30.7838 13.6914 30.3151 13.4554 29.6942 13.4401C29.3385 13.4315 28.9814 13.4384 28.5266 13.4384V11.0309C31.4286 10.5491 33.4333 11.5147 33.6195 14.2913C33.6975 15.4572 33.686 16.6287 33.7607 17.7946C33.7935 18.4289 33.8883 19.0584 34.0441 19.674Z" fill="white"/>
</svg>
