<svg width="45" height="45" viewBox="0 0 45 45" fill="none" xmlns="http://www.w3.org/2000/svg">
<path d="M39.375 5.625H5.625V39.375H39.375V5.625Z" fill="#1976D2"/>
<path d="M25.772 20.625H13.3379V23.685H17.7976V37.5H21.331V23.685H25.772V20.625Z" fill="white"/>
<path d="M36.7443 24.4538C36.7443 24.4538 35.069 23.3363 33.1753 23.3363C31.2815 23.3363 30.6 24.2363 30.6 25.1981C30.6 27.6806 37.5197 27.4322 37.5197 32.4281C37.5197 40.1241 26.969 36.7106 26.969 36.7106V33.0188C26.969 33.0188 28.9865 34.5394 31.4062 34.5394C33.8259 34.5394 33.734 32.9569 33.734 32.7394C33.734 30.4434 26.8762 30.4434 26.8762 25.3538C26.8762 18.4341 36.8681 21.1641 36.8681 21.1641L36.7443 24.4538Z" fill="white"/>
</svg>
